<?xml version="1.0" encoding="UTF-8" standalone="no"?><!DOCTYPE svg PUBLIC "-//W3C//DTD SVG 1.1//EN" "http://www.w3.org/Graphics/SVG/1.1/DTD/svg11.dtd"><svg width="100%" height="100%" viewBox="0 0 5159 1617" version="1.1" xmlns="http://www.w3.org/2000/svg" xmlns:xlink="http://www.w3.org/1999/xlink" xml:space="preserve" xmlns:serif="http://www.serif.com/" style="fill-rule:evenodd;clip-rule:evenodd;stroke-linejoin:round;stroke-miterlimit:2;"><g><path d="M1912.083,1177.5c-27.083,-10.833 -49.167,-31.25 -62.5,-57.083c-7.917,-15 -9.583,-27.083 -11.25,-67.083c-0.833,-26.667 0.417,-60.417 2.917,-75.417c7.5,-42.917 30.833,-111.25 38.333,-111.25c2.083,0 3.75,-2.5 3.75,-5.417c0,-10.833 38.333,-44.583 65.833,-57.5c24.583,-12.083 32.917,-13.75 67.5,-14.583c43.333,-1.25 67.917,4.583 90.417,21.667c14.583,11.25 26.25,12.917 26.25,4.583c0,-3.333 3.333,-8.75 7.5,-12.5c6.25,-5.833 16.667,-7.083 54.167,-7.083l46.667,0l-0.417,15.833c0,8.333 -2.5,28.75 -5.417,44.583c-25,132.083 -40,224.583 -37.083,227.083c1.667,2.083 10,5 17.917,7.083c17.917,4.583 19.583,12.083 12.5,53.75c-6.25,35.417 -10.833,39.167 -56.25,42.083c-39.167,2.917 -61.667,-3.75 -75.833,-21.667c-6.667,-7.917 -12.917,-14.583 -14.583,-14.583c-1.667,0 -10.833,5.417 -20.833,12.083c-27.083,18.333 -53.333,25.417 -92.083,25.417c-25.833,0 -39.583,-2.5 -57.5,-10Zm130,-103.333c9.167,-5 16.25,-11.25 16.25,-14.167c0,-2.5 2.917,-7.083 6.25,-10c5.833,-5 10.417,-13.333 22.083,-42.083c2.5,-6.25 5.833,-24.583 7.5,-40.833c5,-52.5 -12.083,-77.5 -51.25,-75c-19.167,1.25 -29.167,5.833 -44.167,20c-17.083,15.417 -25.833,36.25 -34.583,81.667c-8.75,44.583 -7.917,56.25 7.083,74.167c11.667,14.167 14.583,15.417 33.75,15.417c13.75,0 26.25,-2.917 37.083,-9.167Z" style="fill:#a5c89e;fill-rule:nonzero;"/><path d="M3008.333,1185c-23.75,-4.167 -48.75,-11.667 -62.917,-18.75c-17.5,-8.75 -41.25,-31.667 -47.917,-45.833c-2.5,-5.417 -7.5,-15.417 -10.417,-22.083c-7.917,-16.25 -7.917,-112.5 0,-146.25c10,-43.75 31.25,-83.333 59.167,-110.417c13.75,-13.75 27.917,-25 31.25,-25c3.333,0 5.833,-1.667 5.833,-3.333c0,-2.083 12.5,-7.917 28.333,-13.333c22.083,-7.917 37.917,-10 76.667,-10.833c26.667,-0.833 55,0.833 62.5,2.917c7.5,2.5 17.917,5 23.333,6.25c23.75,5 55.417,31.667 69.167,59.167c13.75,27.083 17.917,84.167 10,130l-5.417,31.25l-120.417,1.25c-80,0.417 -122.5,2.5 -126.25,5.417c-6.667,5.833 -2.917,35.833 6.25,46.667c20.417,23.333 73.333,26.25 94.583,5c12.917,-12.5 22.917,-29.583 22.917,-37.917l0,-10l116.667,0l0,13.75c0,19.167 -10.833,52.083 -23.75,71.667c-12.5,18.75 -37.917,43.75 -45,43.75c-2.5,0 -7.083,2.5 -9.583,5.417c-2.917,2.5 -6.667,5 -8.333,5.417c-3.333,0.417 -15,4.583 -30,10.833c-10.833,4.583 -98.333,8.333 -116.667,5Zm128.333,-263.333c1.25,-10.833 -1.25,-16.25 -12.5,-26.25c-12.083,-11.667 -15.417,-12.917 -33.333,-10.833c-32.917,4.167 -61.25,22.5 -67.083,43.75c-2.083,9.583 -2.083,9.583 54.583,8.333l57.083,-1.25l1.25,-13.75Z" style="fill:#a5c89e;fill-rule:nonzero;"/><path d="M3350.833,1184.583c-8.75,-1.25 -20,-8.333 -31.667,-20c-29.583,-28.75 -29.583,-46.667 -2.917,-200l11.667,-66.667l-18.333,-1.25c-11.25,-0.833 -19.167,-3.75 -20.833,-7.5c-2.5,-6.667 6.25,-68.75 11.667,-83.75c2.917,-7.5 7.083,-9.167 25,-10.417c14.167,-0.833 22.917,-3.333 25,-7.5c9.583,-17.917 16.25,-35.417 16.25,-41.667c0,-3.75 1.667,-8.333 3.333,-10.417c2.083,-2.5 6.25,-12.083 9.167,-21.667l5.417,-17.917l94.583,0l0,20c0,10.833 -2.917,31.667 -5.833,46.667c-3.333,15 -4.583,28.333 -3.333,30c1.667,1.667 15,3.333 30,4.167l27.083,1.25l-1.25,23.333c-0.417,13.333 -3.333,34.583 -6.25,47.917l-5.833,24.583l-28.75,1.25c-15.833,0.833 -30,2.5 -31.667,4.167c-7.5,7.5 -35.417,170.833 -31.25,181.667c2.083,5 8.333,6.667 24.583,6.667c34.583,0 35,0.833 26.25,47.5c-7.083,37.917 -7.917,40 -20.417,44.583c-13.75,5 -79.167,8.333 -101.667,5Z" style="fill:#a5c89e;fill-rule:nonzero;"/><path d="M4597.917,1185c-50.417,-11.25 -69.583,-20 -91.667,-42.083c-28.333,-28.333 -32.917,-44.583 -32.917,-113.75c0,-44.167 1.667,-66.667 6.667,-83.333c4.167,-12.5 8.333,-27.5 10,-33.333c1.667,-5.833 6.25,-15.417 10.833,-21.667c4.167,-5.833 7.5,-12.917 7.5,-15c0,-6.667 53.75,-59.167 60.833,-59.167c3.333,0 5.833,-1.667 5.833,-3.333c0,-2.083 12.5,-7.917 28.333,-13.333c22.5,-7.917 37.5,-10 77.5,-10.833c27.083,-0.417 55,0.833 62.5,3.333c7.083,2.083 17.5,4.583 22.917,5.833c30,6.25 65.833,42.917 76.667,78.75c7.917,26.25 5.833,125 -2.917,139.167c-2.083,3.333 -40,4.583 -122.917,4.583c-94.167,0 -121.25,1.25 -124.583,5.417c-6.25,7.083 -1.667,35.833 6.667,45.833c16.25,18.333 54.167,25.417 78.75,14.583c17.083,-7.917 30.833,-22.917 37.083,-40.417l5,-15l113.333,-2.5l0,14.167c0,29.583 -18.333,70 -42.5,93.75c-25,24.583 -43.333,34.583 -80.417,44.583c-20,5 -95,7.5 -112.5,3.75Zm128.75,-265.833c-1.25,-32.5 -38.333,-45.833 -74.583,-27.5c-19.583,10 -32.917,23.333 -36.25,36.667l-2.5,9.583l56.667,-1.25l57.083,-1.25l-0.417,-16.25Z" style="fill:#a5c89e;fill-rule:nonzero;"/><path d="M1250,1159.583c0,-11.25 2.917,-35 6.667,-53.333c3.333,-18.333 10,-55.833 14.583,-82.917c4.583,-27.5 10.833,-64.167 14.167,-81.25c8.75,-43.333 12.5,-65.833 27.083,-150.417c6.667,-40 14.583,-80 16.667,-88.75l4.583,-15.417l84.167,0.833l84.167,1.25l4.583,37.5c2.5,20.833 7.083,59.167 9.583,85.417c2.917,26.25 6.667,62.083 8.75,79.167c2.083,17.083 5,44.583 6.667,60.417c2.5,25.833 3.333,27.917 7.083,18.75c2.5,-5.833 7.917,-18.75 12.5,-29.167c8.333,-20 12.5,-28.75 42.083,-92.917c10.833,-22.5 19.167,-41.667 19.167,-42.5c0,-1.25 9.167,-21.25 20.417,-44.583c11.25,-23.75 23.333,-50 27.083,-58.75l6.25,-15.417l88.75,0.833l88.75,1.25l-1.25,20.417c-0.417,11.25 -8.333,61.667 -17.5,112.5c-25.833,142.917 -40.417,224.583 -50,283.75c-12.917,80 -5.833,72.917 -75,72.917c-50.417,0 -59.167,-0.833 -61.25,-6.667c-1.25,-3.75 1.667,-30.417 7.083,-59.583c28.75,-159.583 32.5,-183.75 28.75,-181.25c-2.083,1.25 -7.917,10.833 -12.5,21.667c-5,10.833 -17.083,37.5 -27.5,59.167c-10,21.667 -23.75,50.833 -30.417,64.583c-6.25,13.75 -19.583,42.083 -29.583,63.333l-18.333,38.333l-55,0.417c-30,0 -55.833,-1.667 -57.083,-3.75c-1.667,-2.083 -4.167,-25 -6.667,-51.25c-2.083,-25.833 -7.917,-82.5 -12.5,-126.25c-4.583,-43.333 -8.333,-82.083 -8.75,-85.417c-0.417,-3.333 -4.583,17.083 -10,45.833c-8.333,47.083 -34.583,197.083 -37.083,212.5c-0.833,5 -11.667,6.25 -60,7.5l-59.167,1.25l0,-20Z" style="fill:#a5c89e;fill-rule:nonzero;"/><path d="M2247.083,1172.5c-2.917,-8.333 4.167,-53.75 35.833,-226.667c2.083,-10.417 7.5,-44.167 12.917,-74.583c13.75,-82.917 7.917,-75.833 63.333,-74.583l47.083,1.25l1.25,10.833c0.833,8.75 2.917,10.833 9.583,9.167c4.167,-1.25 7.917,-3.333 7.917,-5c0,-1.667 7.917,-7.5 17.917,-12.917c13.75,-7.917 24.583,-10.417 48.75,-10.833c40,-1.25 50,2.5 50,18.75c0,10 -5.833,43.75 -14.583,86.25c-1.667,7.917 -5.417,9.167 -32.917,10.833c-20.417,1.25 -36.667,5 -48.333,11.25c-39.583,20.833 -44.583,34.167 -70,190l-11.667,70.833l-57.083,1.25c-50.417,0.833 -57.5,0.417 -60,-5.833Z" style="fill:#a5c89e;fill-rule:nonzero;"/><path d="M2505.417,1172.5c-2.5,-6.667 2.917,-39.583 30.417,-195.417c8.333,-45.833 16.25,-92.5 18.333,-104.167c9.167,-57.5 33.75,-196.667 35.833,-202.917c2.083,-6.667 8.333,-7.5 58.333,-7.5c47.083,0 56.667,1.25 58.75,6.667c2.5,6.667 -2.917,43.333 -23.333,157.917c-14.583,79.167 -14.583,81.25 -8.75,81.25c2.5,0 29.583,-25.417 60.417,-56.25l56.25,-56.25l125,0l0,12.5c0,10.833 -9.583,22.083 -66.667,77.917c-65,63.333 -75.833,78.333 -62.5,86.667c2.5,1.25 4.167,5.417 4.167,8.75c0,3.333 3.75,14.167 8.333,23.333c4.583,9.583 8.333,20 8.333,22.917c0,2.917 1.25,5.417 3.333,5.417c1.667,0 5.417,7.5 7.917,16.667c2.917,8.75 10.833,27.917 17.083,42.5c19.167,42.5 26.667,64.167 25,74.583l-1.25,10l-60,0c-67.083,0 -60.833,3.333 -75.417,-37.5c-5,-13.75 -10.833,-28.75 -12.5,-33.333c-4.167,-10 -7.5,-19.167 -16.667,-43.75c-3.75,-10.417 -9.583,-19.167 -12.917,-20c-3.75,-0.417 -15,7.917 -25.417,19.167c-17.917,18.75 -19.167,22.083 -25.833,61.25c-4.167,22.917 -8.333,45 -9.167,49.167c-2.083,6.25 -8.333,7.083 -58.333,7.083c-47.5,0 -56.667,-0.833 -58.75,-6.667Z" style="fill:#a5c89e;fill-rule:nonzero;"/><path d="M3644.583,1176.25c-4.583,-4.167 -3.333,-26.25 3.333,-58.333c3.333,-16.25 12.083,-62.5 18.75,-102.083c7.083,-39.583 14.583,-81.25 16.667,-92.917c2.083,-11.25 9.583,-54.583 16.667,-95.833c7.083,-41.25 15.417,-87.917 18.75,-104.167c3.333,-15.833 6.25,-30.833 6.25,-32.5c0,-1.667 63.333,-2.917 140.833,-2.917c133.333,0.833 141.667,1.25 167.917,10c27.917,9.583 34.167,12.917 53.333,32.083c16.25,16.25 21.25,23.75 21.25,30c0,2.917 2.5,7.917 5.417,10.833c3.333,3.333 5,21.25 4.583,60c-0.417,45.833 -1.667,58.75 -9.167,77.917c-5,12.5 -11.25,23.75 -13.333,24.167c-2.5,0.833 -4.167,3.75 -4.167,6.667c0,5.417 -37.917,44.167 -42.917,44.167c-1.667,0 -8.333,3.75 -15,8.75c-6.25,4.583 -14.167,9.167 -17.5,9.583c-3.333,0.833 -8.75,2.5 -12.083,3.75c-20,7.917 -59.167,11.25 -127.083,11.25c-46.667,0 -77.5,1.667 -79.167,4.167c-1.25,2.5 -7.083,27.917 -12.5,57.5c-5.417,29.167 -12.5,63.75 -15,77.083l-5,23.75l-59.167,0c-32.5,0 -60.417,-1.25 -61.667,-2.917Zm301.667,-273.75c14.167,-6.25 30.833,-22.083 40.417,-38.75c12.083,-22.5 1.667,-55.417 -20.417,-63.333c-15.417,-5.417 -127.083,-6.25 -130.417,-0.833c-2.083,3.333 -12.917,60 -17.917,93.333l-2.5,15.417l58.333,0c41.25,0 62.917,-1.667 72.5,-5.833Z" style="fill:#a5c89e;fill-rule:nonzero;"/><path d="M4100,1160.417c0,-10.417 6.667,-55.833 14.583,-101.25c8.333,-45 19.583,-109.167 25.417,-142.5c35.417,-204.583 42.917,-245.833 45.417,-250.417c1.667,-2.083 27.917,-3.75 58.75,-3.75l55.833,0l0,19.167c0,10.833 -5.417,49.583 -12.5,86.667c-6.667,37.083 -15,82.917 -18.333,102.5c-3.333,19.583 -12.917,72.083 -20.833,116.667c-7.917,44.583 -17.5,99.167 -21.25,120.833c-3.333,21.667 -7.917,46.25 -9.583,54.167l-3.333,14.583l-114.167,2.5l0,-19.167Z" style="fill:#a5c89e;fill-rule:nonzero;"/><path d="M4280.417,1172.5c-2.083,-5.833 11.667,-94.167 30,-191.25c2.917,-15.833 9.583,-53.333 15,-83.333c5,-29.583 11.25,-64.583 14.167,-77.083l5,-22.917l55.417,-1.25c30.417,-0.417 57.083,0.417 59.167,2.5c3.75,3.75 -0.417,32.083 -25.833,175.833c-7.5,40 -18.333,102.083 -24.583,137.5l-11.25,64.583l-57.083,1.25c-50.417,0.833 -57.5,0.417 -60,-5.833Z" style="fill:#a5c89e;fill-rule:nonzero;"/><path d="M4859.583,1172.917c-2.917,-7.917 -1.667,-15 15.417,-108.333c7.083,-38.75 17.5,-97.917 23.333,-131.25c17.5,-102.5 22.5,-126.25 27.083,-132.083c3.333,-3.75 17.083,-5.417 50,-5.417l45,0l1.25,12.083l1.25,12.5l24.583,-15.417c23.75,-14.583 26.25,-15.417 61.25,-15.417c23.75,0 38.333,1.667 42.083,5.417c4.583,4.583 3.333,26.25 -7.083,91.25c-2.083,15.417 -5,16.667 -38.75,18.75c-38.333,2.917 -52.917,9.167 -72.5,32.083c-17.5,20.833 -22.5,40.417 -47.083,189.167c-3.75,22.5 -7.917,43.75 -9.167,47.083c-3.333,9.167 -112.917,8.75 -116.667,-0.417Z" style="fill:#a5c89e;fill-rule:nonzero;"/><path d="M4354.583,767.083c-6.25,-4.167 -5.417,-18.75 5,-73.333l5.417,-29.167l57.083,-1.25c48.75,-0.833 57.5,0 59.583,5.417c1.667,3.75 -0.833,27.5 -5,53.333l-7.917,46.667l-54.167,1.25c-29.583,0.417 -56.667,-0.833 -60,-2.917Z" style="fill:#a5c89e;fill-rule:nonzero;"/></g><g><path d="M877.083,1604.583c-2.5,-2.083 -11.25,-5.833 -19.583,-8.75c-8.75,-2.5 -15.833,-6.667 -15.833,-8.75c0,-2.083 -2.5,-3.75 -5.417,-3.75c-14.583,0 -61.25,-61.25 -61.25,-80c0,-3.75 -1.667,-8.333 -4.167,-9.583c-2.5,-1.667 -4.167,-22.917 -4.167,-50.833c0,-45 0.833,-49.583 12.917,-75.833c13.333,-27.917 38.333,-58.75 48.333,-58.75c2.917,0 5.417,-1.667 5.417,-3.333c0,-4.167 13.333,-10.833 43.75,-22.083c22.5,-8.75 78.75,-10.833 83.333,-3.75c1.25,2.5 7.083,4.167 12.5,4.167c25.417,0 72.917,38.333 91.25,74.167c15.833,30.833 20,51.25 18.333,94.167c-1.25,38.333 -2.5,44.583 -15.417,70.417c-8.75,17.083 -22.083,35 -33.333,45c-25,22.083 -28.75,24.583 -32.917,24.583c-1.667,0 -11.25,3.75 -20.833,8.333c-13.333,6.667 -25.417,8.333 -58.333,8.333c-22.5,0 -42.5,-1.667 -44.583,-3.75Z" style="fill:#060606;fill-rule:nonzero;"/><path d="M1600,1597.083c-27.5,-10 -46.25,-22.083 -67.083,-42.917c-13.75,-13.333 -24.583,-25 -24.583,-26.667c0,-1.25 -3.75,-10.417 -7.917,-20.417c-12.083,-26.25 -17.083,-63.75 -12.5,-90.417c10.833,-60.833 50,-105 112.5,-126.667c18.75,-6.667 91.25,-9.167 97.083,-3.75c1.25,1.667 6.667,3.333 12.083,4.167c5,0.833 10.833,3.333 12.917,5.417c2.5,2.5 7.5,4.167 11.667,4.167c4.167,0 7.5,2.083 7.5,4.167c0,2.5 2.5,4.167 5.833,4.167c10.833,0 43.75,37.5 57.5,65.833c12.917,26.25 13.75,30.417 13.333,69.583c-0.417,36.25 -2.083,45 -11.667,65.833c-11.667,24.583 -44.583,61.25 -65,71.667c-27.917,14.583 -48.75,18.75 -91.667,18.333c-24.167,0 -46.667,-1.25 -50,-2.5Z" style="fill:#060606;fill-rule:nonzero;"/><path d="M1951.25,1188.75c-5.417,-0.833 -9.583,-4.583 -9.583,-7.917c0,-4.583 6.667,-5.833 29.167,-5.833c23.333,0 29.167,1.25 29.167,6.25c0,3.333 -3.333,6.25 -7.917,6.25c-4.167,0 -12.917,0.833 -19.583,1.667c-6.667,0.833 -16.25,0.833 -21.25,-0.417Z" style="fill:#060606;fill-rule:nonzero;"/><path d="M2131.25,1185.417c-14.167,-4.167 -25,-10.417 -33.75,-20.417c-7.083,-8.333 -14.167,-15 -15.417,-15c-1.25,0 -10.417,5.417 -20.417,12.083c-20.417,13.333 -47.5,24.167 -51.667,20c-5,-5 2.083,-15.417 10.833,-15.417c9.167,0 36.667,-16.667 54.167,-32.083c5.833,-5.417 11.667,-9.583 13.333,-9.583c1.667,0 6.667,7.083 10.417,15.417c14.583,30.417 61.25,43.75 98.75,28.333c15.833,-6.667 17.917,-11.667 20,-43.333c1.25,-17.917 1.25,-18.333 -15.417,-22.917c-23.75,-6.667 -24.167,-9.167 -3.333,-121.25c3.333,-18.333 7.083,-38.75 7.917,-45.833c1.25,-6.667 5.417,-30.417 9.583,-52.083c4.583,-21.667 9.167,-47.5 10.417,-57.083l2.5,-17.917l-75,0l-11.667,20.833c-6.25,11.25 -12.5,20.833 -14.167,20.833c-1.667,0 -6.25,-4.583 -10,-10.417c-13.333,-20.417 -56.25,-39.583 -90,-39.583c-15.833,0 -20,-1.667 -20,-6.667c0,-5.833 4.167,-6.667 32.917,-4.167c32.083,2.5 54.167,10.417 71.667,25.833c8.333,7.5 20.417,7.5 20.417,0.417c0,-3.333 3.333,-8.75 7.5,-12.5c6.25,-5.833 16.667,-7.083 54.167,-7.083c25.417,0 47.083,1.667 48.75,4.167c2.083,3.333 -1.25,28.333 -10.833,75c-6.25,30.417 -13.333,70.417 -24.167,134.583c-2.083,11.667 -5.833,32.917 -8.333,46.25c-2.5,13.75 -3.333,25.833 -2.083,27.083c1.25,1.25 10,4.167 19.583,6.667l17.5,4.167l-1.25,18.75c-1.667,24.583 -10,59.583 -15.417,63.75c-15,10.833 -62.5,15.833 -87.5,9.167Z" style="fill:#060606;fill-rule:nonzero;"/><path d="M3012.5,1185.417c-40.833,-7.083 -56.25,-12.083 -76.667,-25.417c-19.583,-12.917 -32.917,-27.083 -40,-42.917c-2.917,-5.833 -6.667,-13.75 -8.333,-17.083c-1.667,-3.333 -5.417,-21.25 -8.333,-40c-4.583,-29.167 -4.583,-38.75 1.25,-70.833c9.167,-52.917 12.917,-65 27.917,-95.833c13.333,-27.917 57.5,-76.667 69.167,-76.667c3.333,0 5.833,-1.667 5.833,-3.333c0,-2.083 7.917,-6.25 17.917,-9.167c9.583,-3.333 20,-7.5 23.333,-10c7.083,-5.417 124.167,-6.25 135.833,-0.833c4.583,2.083 11.667,4.583 15.417,5c21.667,4.583 54.167,32.917 68.75,60.417c11.25,21.25 11.667,25 11.667,76.667c-0.417,30 -2.5,61.667 -5,70.833c-2.5,9.167 -5.833,25.833 -7.5,37.083c-1.25,11.25 -4.167,23.75 -6.25,27.917c-2.5,4.167 -4.167,10.417 -4.167,14.167c0,15 -47.917,72.917 -60.833,72.917c-2.5,0 -7.083,2.917 -10,6.25c-2.5,3.333 -6.25,5.833 -7.5,5.417c-2.917,-0.417 -10,2.083 -29.167,9.583c-14.583,5.833 -30,4.583 -30,-2.083c0,-3.75 6.25,-7.083 16.667,-8.75c52.917,-8.75 103.75,-59.583 113.75,-113.333l2.917,-13.75l-45.833,0c-39.583,0 -50.833,2.5 -45,9.583c0.417,0.417 -2.5,6.667 -6.667,13.333c-9.167,15.833 -33.75,33.333 -51.25,36.667c-19.583,3.75 -17.917,-6.25 1.667,-13.333c8.75,-3.333 17.5,-7.917 20,-10.417c14.583,-15 22.917,-30 22.917,-40.417l0,-12.083l-125,0l0,20c0,22.5 7.5,32.5 32.5,42.917c7.083,3.333 13.333,7.917 13.333,10.417c0,7.5 -32.5,-0.417 -43.333,-10.417c-17.083,-15.833 -25.833,-64.583 -13.333,-75c3.75,-3.333 41.667,-4.583 124.583,-4.583c118.333,0 119.583,0 124.167,-9.167c6.667,-12.5 7.083,-110 0.417,-116.667c-2.917,-2.917 -5,-7.917 -5,-12.083c0,-10.833 -31.667,-43.75 -50.833,-52.5c-38.333,-17.5 -102.917,-22.083 -151.25,-10.833c-20.417,5 -54.167,23.333 -70.417,37.917c-17.5,16.667 -41.667,54.167 -50,77.917c-23.333,66.667 -25,144.167 -4.167,185.417c7.083,14.583 35.833,43.75 45.417,47.083c47.917,15 70.417,19.167 103.333,19.583c27.917,0 36.25,1.25 36.25,5.833c0,3.333 -7.083,6.667 -19.167,8.333c-22.083,2.917 -18.333,2.917 -60,-3.75Z" style="fill:#060606;fill-rule:nonzero;"/><path d="M3360.833,1186.25c-33.75,-6.25 -56.667,-28.333 -64.583,-62.5c-2.917,-12.917 -4.167,-25 -2.917,-27.083c1.25,-2.083 4.167,-18.333 6.667,-36.667c5.833,-39.583 10,-65.833 16.667,-101.667c2.917,-15 5.417,-34.583 5.833,-43.75l0.417,-16.667l-18.75,-2.083c-12.917,-1.25 -18.75,-4.167 -18.75,-8.333c0.417,-10 6.25,-45.833 11.25,-69.583l4.583,-21.667l22.917,-1.25c15,-0.833 24.167,-3.333 26.25,-7.5c9.583,-18.333 16.25,-35.417 16.25,-42.083c0,-4.167 2.083,-8.75 4.167,-10c2.5,-1.25 4.167,-5.833 4.167,-10c0,-4.167 2.917,-13.333 6.667,-20.417l6.25,-13.333l95.417,0l0,11.25c0,13.75 -7.5,57.083 -12.917,73.75c-5,16.667 0.417,19.583 33.75,18.75l27.083,-0.833l-0.833,12.083c-0.417,6.667 -2.917,22.5 -5,35c-2.5,12.5 -5.417,30 -7.083,38.333l-2.5,15.417l-31.667,1.25c-35.833,1.25 -33.333,-1.667 -42.917,51.25c-13.333,71.25 -21.25,127.917 -18.75,133.75c1.667,4.167 9.167,5.833 24.167,5.833c32.083,0 33.75,2.083 28.75,33.75c-9.583,58.333 -6.667,55 -47.5,63.75c-18.75,4.167 -12.917,-10.833 6.25,-16.25c19.583,-5.417 20.417,-6.667 25,-30c7.083,-38.75 8.333,-36.667 -18.75,-37.917c-31.25,-1.667 -36.667,-9.167 -31.667,-44.583c3.75,-28.333 10.417,-70 13.75,-85.417c1.25,-5.833 4.167,-22.5 7.083,-37.5c8.75,-50 8.75,-50 41.667,-50c16.667,0 29.583,-2.083 31.25,-4.583c4.167,-6.667 13.75,-63.333 11.25,-67.083c-0.833,-2.083 -14.583,-3.333 -30.833,-3.333l-28.75,0l2.5,-23.75c1.25,-13.333 4.167,-30.833 6.25,-38.75c2.083,-7.917 3.75,-20 3.75,-26.25l0,-11.667l-71.667,2.5l-7.917,22.917c-4.583,12.5 -11.667,32.5 -15,43.75c-9.583,28.75 -11.667,30.833 -35.833,32.083c-23.333,1.25 -21.667,-0.833 -32.083,43.75c-2.5,12.083 -3.75,23.75 -2.083,26.25c1.25,2.083 11.25,4.167 21.667,4.167l19.167,0l-2.5,17.917c-1.25,9.583 -4.583,29.583 -7.083,44.583c-2.083,15 -5.417,34.583 -6.667,43.75c-1.25,9.167 -3.333,19.583 -4.167,22.917c-1.25,3.333 -3.333,13.75 -4.167,22.917c-1.25,9.167 -3.75,24.167 -5.833,33.333c-6.25,27.083 -4.583,52.5 4.167,71.25c10.833,22.083 37.917,35 72.5,35c17.917,0 23.333,1.25 23.333,6.25c0,3.333 -3.75,6.25 -7.917,6.25c-4.583,0 -10.417,0.833 -13.75,1.25c-2.917,0.833 -16.25,-0.417 -30,-2.5Z" style="fill:#060606;fill-rule:nonzero;"/><path d="M4626.25,1188.75c-5.417,-0.833 -9.583,-4.583 -9.583,-7.5c0,-4.167 9.583,-6.25 38.75,-7.5c48.333,-2.5 62.5,-5.417 86.25,-19.167c43.333,-24.167 66.667,-55 76.667,-101.25l2.5,-11.667l-41.25,0c-47.917,0 -54.583,1.667 -54.583,14.167c-0.417,10.833 -6.25,18.333 -25,32.5c-17.083,12.5 -41.667,18.333 -41.667,10.417c0,-2.917 7.083,-7.917 15.417,-10.833c24.583,-9.167 42.917,-31.25 42.917,-52.083l0,-10.833l-125,0l0,20c0,22.5 7.5,32.5 32.5,42.917c7.083,3.333 13.333,7.917 13.333,10.417c0,7.5 -32.5,-0.417 -43.333,-10.417c-17.083,-15.833 -25.833,-64.583 -13.333,-75c3.75,-3.333 41.667,-4.583 124.583,-4.583c118.333,0 119.583,0 124.167,-9.167c2.917,-5.417 5,-29.583 5,-59.167c0.417,-44.583 -0.833,-52.917 -9.167,-70c-10.833,-22.083 -35,-46.25 -55.417,-54.583c-37.5,-15.417 -102.083,-19.167 -147.083,-8.333c-20.417,5 -54.167,23.333 -70.417,37.917c-41.667,39.167 -69.167,111.667 -69.167,183.333c0,51.25 10,81.25 35.417,106.667c5.833,5.833 10.417,12.5 10.417,15c0,2.083 2.917,4.167 6.667,4.167c6.25,0 36.25,8.75 59.167,17.083c12.917,5 11.667,12.083 -2.5,12.083c-25.417,0 -70.417,-22.083 -91.667,-45.833c-25.417,-27.5 -39.167,-94.167 -30.417,-146.25c2.917,-17.083 7.083,-35 9.167,-40.417c2.083,-5.417 3.75,-13.333 3.75,-17.917c0,-4.167 2.083,-11.667 4.167,-16.25c9.583,-19.167 13.75,-27.083 21.667,-40.833c9.583,-17.5 52.083,-59.167 60,-59.167c3.333,0 5.833,-1.667 5.833,-3.333c0,-2.083 7.917,-6.25 17.917,-9.167c9.583,-3.333 19.583,-7.083 21.667,-8.75c4.583,-2.917 62.083,-10.417 72.917,-9.167c3.333,0.417 19.167,2.083 35,3.333c16.25,1.25 31.25,3.75 33.333,5.417c2.5,1.25 7.917,3.333 12.083,3.75c12.917,2.083 46.667,26.25 56.667,40.833c20,29.583 26.25,57.083 24.167,105.417c-1.25,24.583 -3.333,49.167 -4.583,55c-1.667,5.833 -4.583,22.5 -7.083,37.5c-5,28.333 -6.25,32.083 -19.583,62.5c-8.333,18.333 -44.167,58.333 -52.5,58.333c-2.083,0 -7.083,2.5 -10.417,5.417c-9.167,7.5 -40.417,18.333 -60.833,21.25c-36.667,4.583 -58.75,5.833 -67.5,3.75Z" style="fill:#060606;fill-rule:nonzero;"/><path d="M1248.75,1178.75c-3.75,-2.5 -6.25,-5.833 -5,-7.5c0.833,-2.083 4.167,-16.667 6.667,-32.083c2.5,-15.833 6.25,-37.917 8.333,-49.583c2.5,-11.25 5.833,-31.25 7.5,-43.75c3.75,-22.917 10,-58.333 17.5,-97.917c6.25,-32.083 12.083,-64.167 16.25,-91.667c2.5,-13.75 5.833,-34.167 7.917,-45.833c4.167,-23.75 11.25,-61.667 16.25,-89.583c7.083,-39.167 2.917,-37.5 92.083,-37.5c67.917,0 79.167,0.833 84.167,6.667c3.333,4.167 7.083,21.25 8.75,38.75c1.667,17.5 5,50.417 7.5,73.333c4.583,41.667 9.583,87.5 15,140.833c1.667,15.417 4.583,27.917 6.25,27.917c2.083,0 3.75,-2.083 3.75,-4.167c0,-4.167 4.583,-15.417 27.5,-65.417c25.833,-57.083 32.083,-70.417 35,-78.333c2.083,-4.583 13.75,-30 26.25,-56.25c12.917,-26.25 25.833,-55 29.167,-63.333c4.167,-10 10,-16.25 16.25,-17.917c5.417,-1.25 46.25,-1.667 90.833,-1.25c92.5,1.25 83.333,-4.167 75.417,45c-4.583,25.833 -6.667,37.083 -16.667,93.75c-2.5,13.75 -5.833,34.583 -7.083,45.833c-1.25,11.667 -3.75,24.583 -5.833,29.167c-2.083,4.583 -4.583,16.667 -5.833,27.083c-1.25,10.417 -4.167,29.167 -6.667,41.667c-2.083,12.5 -6.25,34.167 -8.333,47.917c-6.667,38.75 -11.25,64.167 -16.667,93.75c-2.5,15 -5.833,35.417 -7.083,45.833c-1.25,10.417 -5,21.25 -8.75,24.167c-4.583,3.333 -25,5 -66.667,5l-60.417,0l2.917,-15.417c1.25,-8.75 4.583,-26.25 6.667,-38.75c7.917,-40.833 12.917,-68.333 16.667,-93.75c1.667,-13.75 5.417,-34.167 7.917,-45.833c7.083,-30 10.417,-56.25 7.5,-56.25c-1.667,0 -6.667,8.75 -11.667,20c-4.583,10.833 -17.083,37.5 -27.5,59.167c-10,21.667 -23.75,50.833 -30.417,64.583c-6.25,13.75 -20.417,43.333 -31.25,65.833l-19.583,40.833l-54.583,-1.25l-55,-1.25l-2.917,-20.833c-3.333,-20.833 -8.75,-75.833 -15.833,-152.083c-6.25,-74.167 -13.333,-94.583 -17.917,-55c-1.667,10.833 -3.75,29.167 -5,40.417c-1.667,11.667 -4.167,24.583 -6.25,29.167c-2.083,4.583 -4.583,16.667 -5.833,27.083c-2.083,17.5 -5.833,38.75 -15,89.583c-5,28.333 -5.833,32.5 -9.583,38.75c-4.167,6.25 -105.417,7.083 -116.667,0.417Zm112.083,-43.333c5.833,-32.083 17.917,-98.333 20.833,-114.583c0.833,-5.833 3.75,-22.5 6.25,-37.5c2.5,-15 6.25,-35 8.333,-44.583c2.083,-9.583 3.75,-22.917 3.75,-30c0,-6.667 2.083,-13.75 4.167,-15c2.5,-1.25 4.167,-16.667 4.167,-33.75c0,-27.917 0.833,-30.833 8.333,-30.833c7.5,0 8.333,2.917 8.333,27.5c0,15 1.667,39.583 4.167,55c2.083,15.417 5.833,50.417 8.333,77.917c2.917,27.5 5.833,55.833 6.667,62.5c0.833,7.083 3.75,33.75 5.833,60c2.083,26.25 5.417,49.167 7.5,51.25c2.083,2.083 22.917,2.917 46.25,2.5c48.75,-1.25 42.917,2.917 67.5,-51.25c7.083,-15.833 18.333,-40.417 24.583,-54.167c6.25,-13.75 14.583,-32.5 18.75,-41.667c4.167,-9.167 19.583,-42.083 34.167,-72.917c39.167,-81.667 41.667,-87.917 47.083,-105.417c4.583,-14.167 13.75,-23.75 18.75,-18.75c1.25,0.833 -1.667,13.75 -5.833,28.75c-4.583,14.583 -10,40 -12.5,55.833c-2.917,16.25 -5.833,35 -7.083,41.667c-1.25,7.083 -4.167,22.917 -5.833,35.417c-1.667,12.5 -6.25,37.917 -10,56.25c-3.75,18.333 -8.75,44.583 -11.25,58.333c-2.5,13.75 -6.25,32.917 -8.75,42.5c-2.083,9.583 -2.917,19.167 -1.25,21.667c1.667,2.917 20,4.583 47.917,4.583c39.583,0 46.25,-0.833 49.583,-7.5c3.333,-6.25 13.333,-59.167 23.75,-123.75c0.833,-6.667 2.917,-17.917 4.167,-25c1.25,-6.667 3.333,-17.917 4.167,-25c1.25,-6.667 5,-27.5 8.333,-45.833c3.75,-18.333 7.083,-38.75 8.333,-45.833c0.833,-6.667 2.917,-17.917 4.167,-25c1.25,-6.667 3.333,-17.917 4.167,-25c1.25,-6.667 5,-27.5 8.75,-45.833c6.25,-33.333 12.917,-72.083 15,-87.5c0.833,-7.917 -2.083,-8.333 -74.583,-9.583c-85.833,-1.25 -79.167,-3.75 -95,36.667c-7.083,17.917 -15,35.417 -52.5,114.583c-30.417,64.167 -43.333,92.917 -53.75,120c-1.667,5 -5.417,13.75 -7.917,19.583c-2.5,5.833 -6.667,17.5 -9.583,26.25c-2.917,8.333 -7.083,15.417 -8.75,15.417c-4.167,0 -2.917,7.917 -10,-66.667c-2.917,-35.417 -6.667,-72.917 -7.917,-83.333c-1.25,-10.417 -4.167,-37.5 -6.25,-60.417c-2.5,-22.917 -6.667,-59.583 -9.583,-81.25l-5,-39.583l-145.417,0l-3.333,12.5c-1.667,7.083 -7.083,35 -11.667,62.5c-5,27.5 -9.583,55.833 -10.833,62.5c-1.25,7.083 -5,27.5 -8.333,45.833c-3.75,18.333 -7.083,37.917 -8.333,43.75c-0.833,5.833 -2.917,17.083 -4.167,25c-4.583,26.667 -5.417,30.833 -12.083,68.75c-3.75,20.833 -7.917,44.167 -8.75,52.083c-1.25,7.917 -3.75,21.25 -5.833,29.167c-2.083,7.917 -5,25.417 -6.667,38.75l-2.5,24.167l94.167,-2.5l5,-29.167Z" style="fill:#060606;fill-rule:nonzero;"/><path d="M1905.417,1175c-20.417,-9.167 -43.333,-30.833 -53.75,-50.417c-16.667,-32.5 -22.5,-85.833 -14.167,-129.583c9.583,-50.417 14.167,-68.333 17.5,-71.667c1.667,-2.5 3.333,-7.083 3.333,-10.417c0,-8.75 17.5,-46.25 21.667,-46.25c1.667,0 3.333,-2.5 3.333,-5.417c0,-10.833 37.917,-44.583 63.75,-56.25c30.417,-14.167 57.083,-19.583 57.083,-11.667c0,2.917 -7.917,7.917 -17.5,11.25c-59.167,19.167 -90.833,50.417 -115.833,114.167c-10.833,27.083 -19.583,79.167 -20.417,120.833c-0.833,30 0.833,42.917 8.333,62.083c10.833,29.167 32.917,52.917 59.583,62.917c10.417,4.167 19.167,10 19.167,12.917c0,7.917 -11.25,7.083 -32.083,-2.5Z" style="fill:#060606;fill-rule:nonzero;"/><path d="M2243.333,1177.083c-1.667,-3.333 -1.25,-11.25 0.417,-17.917c1.667,-6.25 4.583,-22.5 7.083,-36.25c2.083,-13.75 5.833,-34.167 7.917,-45.833c1.667,-11.25 5.417,-32.083 7.917,-45.833c2.083,-13.75 6.25,-35.417 8.333,-47.917c9.167,-48.333 12.5,-65.417 16.25,-89.583c4.583,-29.583 11.25,-65.417 15.417,-84.167l2.917,-13.75l47.083,0c46.667,0 47.917,0 52.5,10.417c4.167,9.583 15.833,14.583 15.833,7.083c0,-9.167 60.417,-32.5 74.167,-28.333c3.75,1.25 13.75,3.333 21.667,4.583c20.417,3.333 24.167,10 20,36.25c-2.083,12.083 -4.583,28.75 -5.833,36.667c-4.583,31.25 -5.417,33.333 -16.667,33.333c-8.333,0 -10,-1.25 -7.083,-5c2.5,-2.917 5.417,-12.917 7.083,-22.083c1.25,-9.167 4.167,-25.833 6.25,-37.5c3.333,-17.083 2.917,-21.667 -2.917,-25.833c-10.833,-8.75 -48.333,-6.667 -66.25,3.333c-19.583,10.833 -42.083,31.667 -45.417,42.917c-2.5,7.917 -2.917,7.917 -8.333,0.417c-3.333,-4.167 -5.833,-15.833 -5.833,-25.833l0,-17.917l-32.917,0c-40.833,0 -46.25,2.083 -46.25,16.667c0,6.667 -1.667,20.833 -4.167,32.083c-2.083,10.833 -7.917,42.5 -12.5,70c-5,27.5 -9.583,53.75 -10.417,58.75c-1.25,5 -2.917,16.25 -4.583,25c-1.25,8.75 -5,30.417 -8.333,47.5c-7.917,41.25 -15.417,87.5 -15.833,97.917c-0.417,7.917 2.5,8.333 42.917,9.583c23.75,0.417 45,-0.417 46.667,-2.083c2.083,-2.083 5.417,-16.667 7.917,-32.5c2.083,-16.25 5,-34.583 6.25,-41.667c1.25,-6.667 4.167,-24.583 6.667,-39.583c13.75,-85.417 19.583,-105.417 37.5,-124.583c19.167,-20.417 49.167,-33.75 77.917,-33.75c14.583,0 17.5,1.25 17.5,8.333c0,7.083 -2.917,8.333 -22.083,8.333c-20.833,0 -46.667,9.583 -59.167,22.5c-9.167,8.75 -21.667,37.083 -24.583,54.583c-1.25,9.167 -4.583,26.25 -6.667,37.5c-2.5,11.667 -6.25,31.25 -8.333,43.75c-2.083,12.5 -5.833,35 -8.333,50c-2.917,15 -6.25,35.417 -7.5,45.833l-2.917,18.75l-59.583,1.25c-50,0.833 -59.583,0 -61.667,-5.417Z" style="fill:#060606;fill-rule:nonzero;"/><path d="M2501.667,1177.083c-1.667,-3.333 -1.25,-10.417 0,-15.833c1.667,-5 5,-20.417 7.083,-34.167c2.083,-13.75 5.833,-34.167 7.917,-45.833c2.083,-11.25 5.833,-32.083 7.917,-45.833c2.5,-13.75 6.25,-36.25 8.75,-50c2.083,-13.75 5.833,-36.25 8.333,-50c4.167,-27.5 10.833,-63.75 16.667,-95.833c2.5,-11.25 5.833,-31.25 8.333,-43.75c2.083,-12.5 5.833,-33.333 7.917,-45.833c2.5,-12.5 6.25,-35 8.75,-49.583c7.5,-44.167 4.167,-42.083 70.833,-42.083l58.333,0l-2.5,20c-1.25,10.833 -4.167,29.167 -6.25,40.417c-2.083,11.667 -5.833,31.25 -8.333,43.75c-2.083,12.5 -5.833,30.833 -7.917,40.833c-2.5,9.583 -4.167,22.917 -4.167,29.583c0,6.25 -1.667,17.083 -3.75,23.75c-6.25,19.583 -9.167,51.667 -4.583,51.667c2.5,0 29.583,-25.417 60.417,-56.25l56.25,-56.25l73.333,0c57.5,0 72.5,1.25 70,5.417c-2.083,2.5 -36.667,37.5 -77.5,77.5c-72.083,70.833 -83.333,85.833 -70,94.167c2.5,1.25 4.167,5.417 4.167,8.75c0,3.333 3.75,14.167 8.333,23.333c4.583,9.583 8.333,20 8.333,22.917c0,2.917 1.25,5.417 3.333,5.417c1.667,0 5.417,7.5 7.917,16.667c2.917,8.75 10.833,27.917 17.083,42.5c21.25,47.083 30.833,73.333 29.167,81.25c-1.25,6.667 -7.083,7.5 -62.083,8.75c-69.167,1.25 -60.833,5.417 -78.75,-42.917c-5,-13.75 -10.833,-28.75 -12.5,-33.333c-4.167,-10 -7.5,-19.167 -16.667,-43.75c-3.75,-10.417 -9.583,-19.167 -12.917,-20c-3.75,-0.417 -15,7.917 -25.417,19.167c-15.833,16.667 -20,24.167 -22.083,40.833c-1.25,11.25 -4.167,27.083 -6.25,35.417c-2.5,8.333 -4.167,20.833 -4.167,27.917c0,7.5 -2.5,13.333 -6.667,15c-3.75,1.25 -30.833,2.5 -60.417,2.5c-44.583,0 -54.583,-1.25 -56.25,-6.25Zm110.417,-25.833c2.5,-8.75 6.667,-30.417 9.583,-48.333c5.417,-35.417 9.167,-40.833 46.25,-71.25c16.25,-13.333 20.833,-15 25.833,-10.833c3.333,2.917 6.25,7.5 6.25,10c0,3.75 17.917,52.083 37.5,100.417c1.667,4.583 5.833,14.583 8.333,22.083l5.417,13.75l48.333,-1.25c40,-1.25 48.333,-2.5 47.5,-7.5c-0.417,-3.333 -11.25,-31.667 -24.167,-62.5c-47.5,-112.083 -56.25,-135 -56.25,-142.5c0,-4.583 9.167,-16.667 20.417,-27.5c10.833,-10.833 41.667,-40.417 68.75,-66.25c26.667,-25.417 48.333,-47.5 48.333,-48.75c0,-1.25 -22.917,-2.5 -50.417,-2.5l-50.417,0l-15.417,12.917c-8.333,7.5 -42.083,39.583 -75,72.083c-36.667,35.417 -60.833,56.25 -62.083,52.917c-0.833,-2.917 0.417,-17.083 2.917,-30.833c2.917,-14.167 6.667,-35 8.75,-46.667c2.5,-11.25 7.083,-39.583 10.833,-62.5c3.333,-22.917 8.75,-52.917 12.083,-66.667c2.917,-13.75 6.25,-33.333 6.667,-43.75l1.667,-18.75l-91.667,0l-2.917,16.667c-5,29.583 -20.833,120 -24.583,141.667c-2.083,11.667 -4.583,29.167 -5.833,39.583c-1.25,10.417 -4.167,26.25 -6.25,35.417c-2.5,9.167 -6.667,32.5 -10.417,52.083c-7.917,46.25 -10,57.5 -13.333,75c-1.667,7.917 -3.333,17.5 -3.333,21.25c-2.083,17.083 -11.25,65.833 -15.417,79.583c-7.917,26.667 -5,28.333 44.167,28.333l43.75,0l4.167,-15.417Z" style="fill:#060606;fill-rule:nonzero;"/><path d="M3643.333,1180.833c-4.167,-2.083 -1.667,-31.667 6.667,-76.667c2.5,-12.5 6.25,-33.333 7.917,-45.833c3.75,-22.917 10,-58.333 17.5,-97.917c6.25,-32.083 12.083,-64.167 16.25,-91.667c2.5,-13.75 5.833,-34.167 7.917,-45.833c2.083,-11.25 6.25,-32.917 8.75,-47.917c2.5,-15 6.25,-35.417 8.333,-45.833c1.667,-10.417 5,-24.167 7.083,-31.25l3.75,-12.5l125,0c117.917,0 169.167,2.917 178.75,10c2.5,2.083 8.75,4.583 14.583,5.833c20.417,5 62.5,44.167 62.5,58.333c0,2.917 1.667,7.083 3.333,9.167c7.083,8.333 14.583,51.667 12.083,71.667c-4.167,32.5 -7.5,48.75 -11.25,57.5c-1.667,4.583 -5.417,14.583 -8.333,22.083c-2.917,7.083 -6.667,13.333 -8.75,13.333c-2.083,0 -3.75,2.5 -3.75,5.417c0,5.417 -37.5,44.583 -42.917,44.583c-1.667,0 -8.333,3.75 -15,8.75c-6.25,4.583 -14.167,9.167 -17.5,9.583c-3.333,0.833 -8.75,2.083 -12.083,3.333c-27.5,9.583 -38.75,11.667 -57.5,11.667c-15.833,0 -21.667,-1.667 -21.667,-5.833c0,-3.75 9.583,-7.083 30.417,-10c16.25,-2.5 35.833,-5.833 42.5,-7.5c15,-3.333 53.75,-29.583 69.583,-45.833c36.667,-39.583 51.667,-118.333 32.083,-170.417c-10,-27.083 -27.5,-46.25 -53.75,-59.167c-33.333,-16.25 -57.5,-18.333 -187.5,-17.083l-122.917,1.25l-2.917,16.667c-8.75,54.167 -11.667,72.083 -13.333,81.25c-3.75,19.583 -15.417,85.417 -17.5,97.917c-1.25,7.083 -7.083,38.75 -12.5,70.833c-5.833,32.083 -11.667,64.167 -12.5,70.833c-1.25,7.083 -5,27.5 -8.75,45.833c-11.667,61.667 -13.75,74.583 -10,78.333c1.667,1.667 24.583,2.5 50.833,2.083c43.75,-1.25 47.5,-2.083 48.333,-9.583c0.833,-4.583 2.917,-17.5 5.417,-29.167c2.083,-11.25 5.833,-32.917 8.333,-47.917c8.333,-48.333 13.75,-68.75 18.333,-71.667c2.5,-1.667 14.583,-3.333 26.667,-3.333c16.25,0 21.667,1.667 21.667,5.833c0,4.583 -5.833,6.667 -19.583,7.5c-22.083,1.25 -20.417,-0.833 -30,50.417c-2.5,12.917 -6.667,34.583 -9.167,47.917c-2.5,12.917 -6.667,33.333 -9.583,44.583l-5.417,20.833l-57.917,0.833c-31.667,0.417 -60,0 -62.5,-1.25Z" style="fill:#060606;fill-rule:nonzero;"/><path d="M4098.75,1178.75c-3.75,-2.5 -6.25,-5.833 -5,-7.5c0.833,-2.083 4.167,-16.667 6.667,-32.083c9.167,-57.083 11.25,-70.833 16.25,-97.5c2.5,-15 6.667,-36.25 8.75,-47.917c2.5,-11.25 5.833,-31.25 7.5,-43.75c2.083,-12.5 5.833,-35 8.75,-50c5,-26.25 7.5,-41.667 16.667,-93.75c2.083,-13.75 5.833,-34.167 7.917,-45.833c2.083,-11.25 5.833,-32.917 8.333,-47.917c8.333,-50.417 9.167,-52.083 28.75,-53.333c15.417,-1.25 17.5,-0.417 17.5,7.083c0,6.25 -2.917,8.75 -9.167,8.75c-14.583,0 -18.333,4.583 -19.167,22.5c-0.833,9.167 -2.083,17.917 -3.333,20c-1.25,2.083 -4.167,15.417 -6.25,29.583c-2.083,14.167 -4.583,30.417 -5.417,36.25c-5.417,28.75 -15.833,87.917 -19.167,108.333c-5.417,32.083 -7.5,44.167 -19.167,110.417c-5.833,32.083 -11.667,65 -12.5,72.917c-1.25,7.917 -3.75,21.25 -5.833,29.167c-2.083,7.917 -5,25.417 -6.25,38.75l-2.917,23.75l43.75,0c29.167,0 45,-1.667 47.083,-5c2.5,-4.167 13.75,-62.5 20.833,-109.583c0.833,-6.667 2.917,-17.917 4.167,-25c1.25,-6.667 3.333,-17.917 4.167,-25c1.25,-6.667 5,-27.5 8.333,-45.833c7.083,-39.167 7.5,-40.833 20.833,-116.667c5.833,-32.083 11.667,-65 12.5,-72.917c1.25,-7.917 3.75,-21.25 5.833,-29.167c2.083,-7.917 5,-25.417 6.25,-38.333l2.917,-24.167l-15,0c-12.083,0 -15,-1.667 -15,-8.333c0,-7.5 2.917,-8.333 22.917,-8.333c22.083,0 25.833,2.5 22.917,14.583c-0.417,2.5 -2.5,15.417 -4.583,29.167c-2.083,13.75 -5.833,35.417 -7.917,47.917c-2.083,12.5 -5.833,33.333 -8.333,45.833c-2.083,12.5 -5.833,33.333 -8.333,45.833c-5,26.667 -11.25,62.917 -16.667,95.833c-2.083,12.5 -5.833,33.333 -8.333,45.833c-2.083,12.5 -6.25,34.167 -8.333,47.917c-11.667,66.667 -17.5,98.75 -24.167,133.333l-2.917,16.667l-54.167,0.833c-32.083,0.833 -57.083,-0.833 -61.667,-3.333Z" style="fill:#060606;fill-rule:nonzero;"/><path d="M4276.667,1165.833c1.667,-10 5,-27.083 7.083,-38.75c2.083,-11.25 5.417,-32.083 7.917,-45.833c4.583,-27.083 9.167,-52.917 16.667,-91.667c2.5,-13.75 6.25,-36.25 8.333,-50c2.5,-13.75 6.25,-35.417 8.75,-47.917c2.083,-12.5 5.417,-32.083 6.667,-43.75c0.833,-11.25 3.75,-22.5 5.833,-25c2.083,-2.083 3.75,-8.75 3.75,-15l0,-11.667l60.417,-1.25c47.5,-0.833 60.833,0 62.5,4.167c1.25,3.333 0.833,7.917 -0.833,10.417c-1.667,2.917 -4.583,15.417 -6.25,27.917c-1.667,12.5 -5,33.333 -7.5,45.833c-2.083,12.5 -6.25,34.167 -8.333,47.917c-9.167,52.083 -11.667,67.5 -16.667,93.75c-2.917,15 -6.667,37.5 -8.75,50c-1.667,12.5 -5.417,33.333 -7.5,45.833c-2.5,12.5 -5.417,30.417 -7.083,39.583c-1.667,9.167 -5,17.917 -7.5,19.583c-2.5,1.667 -30.417,3.333 -62.5,3.333l-57.917,0l2.917,-17.5Zm108.333,-2.5c1.667,-3.333 7.917,-35.417 13.333,-69.583c0.833,-6.667 2.917,-17.917 4.167,-25c1.25,-6.667 3.333,-17.917 4.167,-25c1.25,-6.667 5,-27.5 8.333,-45.833c3.75,-18.333 7.083,-38.75 8.333,-45.833c1.667,-12.083 4.583,-27.917 7.917,-45.833c4.167,-19.583 15.417,-83.75 15.833,-89.583c0.833,-5 -7.083,-6.667 -42.5,-7.5c-23.75,-0.417 -45,0.417 -47.083,2.5c-2.917,2.917 -13.75,55.833 -22.5,111.25c-1.25,7.083 -5,27.5 -8.333,45.833c-3.333,18.333 -7.083,40 -8.333,47.917c-0.833,7.917 -2.917,19.167 -4.167,25c-1.25,5.833 -3.333,15 -4.167,20.833c-5,31.25 -10.833,62.083 -15,75.833c-7.917,26.667 -5,28.333 44.167,28.333c24.167,0 44.583,-1.667 45.833,-3.333Z" style="fill:#060606;fill-rule:nonzero;"/><path d="M4860,1157.5c2.5,-30 8.75,-67.917 23.75,-147.083c2.083,-11.25 5.833,-31.25 7.917,-43.75c4.583,-28.333 10.417,-60.833 16.25,-93.75c2.5,-13.75 6.25,-33.75 7.917,-44.583c5.833,-31.667 7.5,-32.5 61.667,-32.5l47.5,0l0,10.417c0,12.917 0.833,12.917 20,0c8.75,-5.833 25.833,-13.333 37.917,-17.083c21.667,-6.25 33.75,-5.417 70.833,5c5.833,1.667 5.833,1.25 -3.75,57.917c-2.083,11.667 -4.583,27.083 -5.833,34.583c-1.25,7.917 -3.333,15.833 -4.583,17.917c-1.667,2.083 -17.5,3.75 -35.833,3.75c-21.25,0 -37.5,2.083 -45,6.25c-17.083,8.75 -40.833,37.5 -43.75,53.333c-10,49.583 -22.917,121.667 -30.833,173.75c-6.25,42.5 -5,41.667 -70.417,41.667l-56.25,0l2.5,-25.833Zm107.5,-7.5c2.917,-13.333 7.917,-42.5 13.75,-79.167c1.25,-7.917 3.333,-20 4.583,-27.083c1.25,-6.667 3.333,-19.167 4.583,-27.083c12.5,-87.083 47.083,-125 112.917,-125c25.417,0 26.25,-1.25 34.167,-49.583c4.583,-28.75 4.583,-31.667 -2.5,-36.667c-11.25,-8.333 -45,-6.667 -66.667,3.333c-10.417,5 -26.667,18.333 -36.25,29.167c-9.583,11.25 -18.75,20.417 -20.417,20.417c-2.083,0 -3.333,-11.25 -3.333,-25l0,-25.417l-72.5,2.5l-3.333,12.5c-1.667,7.083 -7.083,35 -11.667,62.5c-5,27.5 -9.583,55.833 -10.833,62.5c-1.25,7.083 -7.083,38.75 -12.5,70.833c-5.833,32.083 -11.667,64.167 -12.5,70.833c-1.25,7.083 -4.583,25.417 -7.917,41.25c-3.333,15.833 -5,30.417 -3.75,32.5c1.25,2.083 22.083,2.917 46.667,2.5l44.167,-1.25l3.333,-14.583Z" style="fill:#060606;fill-rule:nonzero;"/><path d="M647.083,1117.083c-14.167,-13.75 -28.333,-26.25 -31.667,-28.333c-3.75,-1.667 -16.667,-12.5 -28.75,-24.167c-12.083,-11.25 -28.75,-25.833 -36.667,-32.083c-7.917,-5.833 -23.75,-19.583 -34.583,-30c-10.833,-10.417 -21.25,-19.167 -22.917,-19.167c-1.667,0 -12.5,-9.167 -23.75,-20c-11.667,-10.833 -27.5,-24.583 -35.417,-30.833c-7.917,-5.833 -22.917,-18.75 -32.917,-27.917c-10,-9.583 -19.167,-17.083 -20.833,-17.083c-1.25,0 -14.583,-11.25 -29.167,-25c-14.583,-13.75 -27.5,-25 -29.167,-25c-1.25,0 -13.333,-10 -26.25,-22.5c-12.917,-12.5 -26.25,-24.167 -29.583,-26.25c-28.75,-15.833 -206.25,-193.75 -221.25,-221.25c-2.083,-3.75 -5,-7.917 -6.667,-9.167c-1.667,-1.25 -9.167,-14.167 -16.667,-28.75c-24.167,-48.333 -17.5,-92.5 17.917,-116.25c22.5,-15 54.583,-30 65,-30c4.583,0 9.167,-1.667 10.417,-3.75c1.25,-2.083 8.333,-4.583 15.833,-5.833c7.5,-1.667 24.167,-4.583 36.667,-7.083c38.333,-7.083 75,-12.083 122.917,-16.667c25.417,-2.083 52.5,-5 60.417,-6.25c7.917,-1.25 208.75,-5.417 445.833,-8.75c417.917,-6.25 502.083,-8.75 620.833,-17.917c139.583,-11.25 235.833,-23.75 318.75,-42.083c11.667,-2.5 27.917,-5.833 36.667,-7.083c8.333,-1.25 16.667,-3.75 17.917,-5.833c1.25,-2.083 6.25,-3.75 10.833,-3.75c9.583,0 11.25,-0.417 74.167,-21.25c40,-12.917 50,-17.083 102.083,-42.083c26.667,-12.5 67.5,-35.417 72.917,-40.833c1.25,-1.25 7.083,-4.583 13.75,-7.917c6.25,-3.333 11.25,-7.5 11.25,-9.583c0,-1.667 2.5,-3.333 5.417,-3.333c2.917,0 9.167,-3.333 13.75,-7.5c4.167,-4.167 14.583,-12.083 22.5,-17.5c7.917,-5.833 21.25,-16.667 29.167,-24.167c7.917,-7.917 21.25,-19.167 29.167,-25c7.917,-6.25 22.917,-19.167 33.333,-28.75c21.667,-20.417 29.167,-23.333 17.917,-6.25c-4.583,6.25 -12.5,20 -18.333,31.25c-5.417,10.833 -11.25,19.583 -12.917,19.583c-2.083,0 -3.333,2.083 -3.333,4.583c0,2.5 -5.417,12.917 -12.5,23.333c-7.083,10 -12.5,19.583 -12.5,21.667c0,1.667 -3.333,6.667 -7.5,11.25c-4.167,4.167 -9.583,11.25 -11.667,15c-15.833,28.333 -110,122.5 -138.333,138.333c-3.75,2.083 -9.583,6.667 -12.5,9.583c-2.917,2.917 -7.083,5.417 -9.167,5.417c-2.083,0 -6.25,2.917 -10,6.25c-7.917,7.917 -120.417,64.583 -128.333,64.583c-3.333,0 -7.5,1.667 -9.583,3.75c-4.583,4.167 -87.5,32.917 -110.417,38.333c-7.917,1.667 -28.75,7.083 -45.833,12.083c-17.083,5 -41.667,10.833 -54.167,12.917c-12.5,2.5 -32.083,6.25 -43.75,8.333c-70.833,13.75 -150,23.75 -260.417,33.333c-26.25,2.5 -182.083,5.833 -345.833,7.917c-311.25,4.167 -424.167,9.167 -493.75,22.917c-6.667,1.25 -23.75,4.583 -37.5,6.667c-13.75,2.5 -28.75,5.833 -33.333,7.917c-4.583,1.667 -19.167,6.667 -32.083,10.417c-22.917,6.667 -65,29.167 -75,40.417c-19.167,20.833 -24.167,51.25 -13.333,85.417c7.083,21.667 32.083,65.417 46.25,79.583c2.917,3.333 10.833,12.5 17.083,20.833c6.25,8.333 25.417,30.417 42.917,48.75c17.5,18.333 40,42.5 50,53.75c10,11.25 41.667,44.167 70,72.917c28.333,28.75 56.25,59.167 62.5,67.083c5.833,7.917 15,18.75 20,23.75c5,5 14.167,16.667 20.833,25c6.25,8.75 12.5,16.667 13.75,17.917c2.917,2.5 28.75,39.583 38.75,55.417c12.5,19.583 -1.25,13.333 -29.167,-13.333Z" style="fill:#060606;fill-rule:nonzero;"/><path d="M1984.167,1094.167c-21.667,-7.5 -33.333,-21.25 -36.667,-42.917c-3.333,-22.5 3.333,-72.917 13.75,-105.417c21.667,-67.5 103.75,-92.083 137.917,-41.667c8.75,13.333 9.583,17.917 7.917,50c-3.333,57.5 -11.25,82.917 -36.25,113.333c-20.417,24.583 -59.167,36.667 -86.667,26.667Zm57.917,-20c9.167,-5 16.25,-11.25 16.25,-14.167c0,-2.5 2.917,-7.083 6.25,-10c7.917,-6.25 18.75,-28.333 18.75,-37.5c0,-3.75 1.667,-8.333 4.167,-10.833c5.833,-5.833 6.25,-73.75 0.417,-87.917c-8.333,-20 -43.75,-28.75 -69.167,-16.667c-34.167,15.833 -51.25,54.583 -58.75,132.083c-2.083,21.25 -1.25,24.167 10.833,38.75c12.083,14.167 15,15.417 34.167,15.417c13.75,0 26.25,-2.917 37.083,-9.167Z" style="fill:#060606;fill-rule:nonzero;"/><path d="M3002.083,945.833c-1.25,-2.083 2.5,-13.75 9.167,-25.417c12.083,-22.5 40,-45.417 55,-45.417c14.167,0 10,10.833 -7.5,18.75c-17.917,7.917 -33.75,23.75 -33.75,33.333c0,5.417 7.917,6.25 55.417,5.417l55,-1.25l1.25,-11.667c2.083,-16.25 -19.583,-36.25 -39.167,-36.25c-10,0 -14.167,-2.083 -14.167,-6.25c0,-7.917 20.417,-8.333 38.75,-0.417c20.417,8.333 28.75,23.75 27.083,49.583l-1.25,21.667l-71.667,1.25c-45.417,0.417 -72.5,-0.417 -74.167,-3.333Z" style="fill:#060606;fill-rule:nonzero;"/><path d="M4593.75,946.25c-3.333,-5.833 15.833,-42.5 27.917,-52.5c14.167,-12.083 27.083,-18.75 37.083,-18.75c12.5,0 7.917,9.167 -8.75,17.5c-17.083,8.75 -33.333,25.417 -33.333,34.583c0,5.833 7.083,6.25 55.417,5.417l55,-1.25l-1.25,-14.583c-1.25,-18.333 -17.917,-33.333 -37.083,-33.333c-9.583,0 -13.75,-2.083 -13.75,-6.25c0,-7.917 20.417,-8.333 38.75,-0.417c20.417,8.333 28.75,23.75 27.083,49.583l-1.25,21.667l-71.667,1.25c-43.75,0.417 -72.5,-0.417 -74.167,-2.917Z" style="fill:#060606;fill-rule:nonzero;"/><path d="M3802.083,916.667c-2.5,-3.75 10.833,-85.417 19.167,-117.5l4.167,-15.833l144.167,0l15.833,13.75c13.333,11.667 15.833,16.667 17.5,35c2.917,27.5 -4.583,48.75 -22.5,65c-19.167,17.5 -20.833,18.333 -43.75,21.667c-16.667,2.5 -20,2.083 -20,-3.75c0,-3.75 3.333,-6.667 7.917,-6.667c20.833,0 47.917,-19.583 62.083,-44.583c10.417,-19.167 2.083,-55 -14.583,-61.667c-10.833,-4.167 -105.833,-7.917 -122.917,-4.583c-13.333,2.5 -15,4.167 -17.917,20.417c-1.25,9.583 -4.583,27.917 -6.667,40.417c-7.5,43.333 -7.083,47.917 5.833,49.167c6.25,0.833 11.25,3.75 11.25,7.5c0,6.667 -35.417,8.333 -39.583,1.667Z" style="fill:#060606;fill-rule:nonzero;"/><path d="M4348.75,768.333c-2.5,-2.917 0,-32.917 4.167,-43.333c1.25,-3.333 4.583,-18.333 7.083,-33.333c4.167,-25 5.417,-27.083 16.25,-28.333c12.083,-1.667 16.25,8.75 5,13.333c-3.333,1.25 -6.25,6.667 -6.25,12.5c0,5.417 -2.917,21.667 -6.667,36.25c-6.667,26.667 -5,32.5 10,32.917c2.5,0 5,2.917 5,6.25c0,4.583 -4.583,6.25 -15.833,6.25c-8.75,0 -17.083,-1.25 -18.75,-2.5Z" style="fill:#060606;fill-rule:nonzero;"/><path d="M4416.667,765c0,-4.583 5.833,-6.667 19.583,-7.5l19.583,-1.25l5,-22.917c2.917,-12.5 5.833,-30.417 6.667,-39.583c1.25,-16.667 0.833,-16.667 -14.583,-17.917c-12.083,-1.25 -15.417,-2.917 -15.417,-9.583c0,-6.667 2.917,-7.917 22.5,-7.917c12.917,0 23.333,2.083 24.167,4.583c0.833,2.5 0,14.167 -1.667,26.25c-9.167,63.75 -10.833,72.917 -13.333,77.083c-1.667,2.5 -14.167,4.583 -27.917,4.583c-18.75,0 -24.583,-1.25 -24.583,-5.833Z" style="fill:#060606;fill-rule:nonzero;"/></g><g><path d="M1942.917,1187.5c-9.583,-2.083 -21.25,-5.833 -26.25,-8.333c-8.333,-4.583 -11.667,-16.667 -4.167,-16.667c2.5,0 4.167,1.667 4.167,3.75c0,9.167 101.25,7.917 116.667,-1.667c3.333,-2.083 4.583,-0.417 3.333,4.583c-0.833,4.583 -4.167,7.5 -6.667,7.083c-2.917,-0.833 -5,0.417 -5,2.5c0,3.75 -13.75,6.667 -48.75,10.417c-8.75,0.833 -23.75,0 -33.333,-1.667Zm37.5,-7.083c-5.417,-0.833 -13.75,-0.833 -18.75,0c-5.417,0.833 -1.25,1.667 9.167,1.667c10.417,0 14.583,-0.833 9.583,-1.667Z" style="fill:#323331;fill-rule:nonzero;"/><path d="M2135.417,1185.833c-13.333,-3.75 -15,-5.417 -9.167,-7.917c11.25,-4.167 52.917,-3.75 52.917,0.833c0,2.083 -7.083,3.333 -15.417,2.5c-8.75,-0.417 -12.5,-0.417 -8.333,0.833c7.917,2.083 10,9.583 2.083,9.167c-2.917,0 -12.917,-2.5 -22.083,-5.417Z" style="fill:#323331;fill-rule:nonzero;"/><path d="M3022.5,1187.083c-11.667,-2.5 -21.25,-6.25 -21.25,-9.167c0,-3.75 13.75,-5 48.333,-5c26.667,0 54.583,-1.25 62.083,-2.917c10.417,-2.083 13.333,-1.25 13.333,3.75c0,4.167 -2.5,5.833 -8.333,4.167c-4.583,-1.25 -7.5,-0.833 -6.25,1.25c4.583,7.5 -59.583,13.333 -87.917,7.917Zm47.5,-6.667c-6.667,-0.833 -16.667,-0.833 -22.917,0c-6.667,0.833 -1.25,1.667 11.25,1.667c12.5,0 17.917,-0.833 11.667,-1.667Z" style="fill:#323331;fill-rule:nonzero;"/><path d="M3361.667,1186.25c-17.5,-3.333 -24.167,-6.25 -24.167,-10.833c0,-5.833 0.833,-5.833 4.167,-0.417c2.5,3.75 5.417,4.583 7.5,2.083c4.167,-5.833 101.667,-6.25 99.583,-0.417c-0.833,2.5 -3.333,4.583 -5.417,5c-2.083,0 -11.25,1.667 -20.417,3.333c-29.167,5 -37.083,5.417 -61.25,1.25Zm33.333,-5.833c-4.167,-0.833 -10.833,-0.833 -14.583,0c-4.167,1.25 -0.833,2.083 7.083,2.083c7.917,0 11.25,-0.833 7.5,-2.083Z" style="fill:#323331;fill-rule:nonzero;"/><path d="M4608.333,1186.667c-15,-2.5 -24.583,-5.417 -21.667,-6.25c2.5,-1.25 3.75,-4.167 2.083,-6.25c-1.667,-3.333 0.833,-3.75 7.5,-2.083c5.417,1.667 31.667,2.917 57.917,2.917c36.667,0 46.25,1.25 42.5,5c-2.5,2.5 -8.333,5.417 -12.083,5.833c-27.917,4.167 -52.917,4.583 -76.25,0.833Zm53.333,-6.25c-6.667,-0.833 -16.667,-0.833 -22.917,0c-6.667,0.833 -1.25,1.667 11.25,1.667c12.5,0 17.917,-0.833 11.667,-1.667Z" style="fill:#323331;fill-rule:nonzero;"/><path d="M2195.833,1177.5c0,-3.75 2.917,-6.667 6.667,-6.667c3.75,0 5.833,2.083 5,5c-2.5,7.5 -11.667,8.75 -11.667,1.667Z" style="fill:#323331;fill-rule:nonzero;"/><path d="M2741.667,1177.083c0,-3.333 -1.667,-6.25 -4.167,-6.25c-2.083,0 -4.167,-3.75 -4.167,-7.917c0,-4.583 -3.75,-16.667 -8.333,-27.5c-9.583,-22.5 -10.833,-35.417 -1.667,-16.667c4.583,9.167 5.417,10 4.167,2.917c-0.833,-5.417 0,-7.917 2.5,-6.667c2.083,1.25 2.917,7.083 1.667,12.083c-3.333,13.333 1.25,25.833 6.667,17.917c2.5,-3.75 2.917,-2.5 1.25,3.75c-4.583,16.25 4.583,26.25 22.917,26.25c9.167,0 16.667,2.083 16.667,4.167c0,2.5 -8.333,4.167 -18.75,4.167c-13.75,0 -18.75,-1.667 -18.75,-6.25Z" style="fill:#323331;fill-rule:nonzero;"/><path d="M2980.417,1180.417c-2.917,-0.833 -5.417,-5 -5.417,-8.333c0,-3.75 -2.5,-5.417 -5.833,-4.167c-9.167,3.75 -33.75,-4.583 -41.667,-13.333c-12.917,-14.167 0.833,-14.583 26.667,-0.833c13.333,7.083 27.5,12.917 31.667,12.917c6.25,0 6.667,0.833 2.083,3.75c-2.917,2.083 -4.167,5.833 -2.917,8.333c3.333,5 2.917,5 -4.583,1.667Z" style="fill:#323331;fill-rule:nonzero;"/><path d="M4704.167,1178.333c0.417,-2.917 6.667,-8.333 14.583,-12.083c12.5,-5.833 14.583,-5.833 14.583,-0.833c0,3.333 -3.75,7.083 -8.333,8.333c-4.583,1.25 -8.333,3.75 -8.333,5.833c0,2.083 -2.917,3.75 -6.25,3.75c-3.333,0 -6.25,-2.5 -6.25,-5Z" style="fill:#323331;fill-rule:nonzero;"/><path d="M2041.667,1165c0,-3.75 2.917,-6.667 6.667,-6.667c7.083,0 5.833,9.167 -1.667,11.667c-2.917,0.833 -5,-1.25 -5,-5Z" style="fill:#323331;fill-rule:nonzero;"/><path d="M2746.667,1165.833c-2.917,-2.917 -5,-6.667 -5,-9.167c0,-2.083 2.5,-0.833 5.417,2.917c2.5,3.75 11.667,7.5 19.583,8.333l14.583,1.667l-14.583,0.417c-8.333,0.417 -17.083,-1.25 -20,-4.167Z" style="fill:#323331;fill-rule:nonzero;"/><path d="M3151.25,1167.917c-7.5,-2.917 -6.667,-9.583 0.833,-9.583c3.333,0 6.25,2.917 6.25,6.25c0,3.333 -0.417,6.25 -0.833,5.833c-0.833,0 -3.75,-1.25 -6.25,-2.5Z" style="fill:#323331;fill-rule:nonzero;"/><path d="M4540,1166.667c-16.667,-5 -27.083,-15.833 -24.583,-25c2.083,-7.5 2.5,-7.5 10.417,-0.417c4.167,4.167 15.417,10.833 24.583,15c11.667,5.417 15,8.75 11.25,11.25c-6.25,3.75 -5.833,3.75 -21.667,-0.833Z" style="fill:#323331;fill-rule:nonzero;"/><path d="M2065.417,1151.667c-3.333,-3.333 1.25,-14.167 5.833,-14.167c4.583,0 5,11.25 0,14.167c-1.667,1.25 -4.583,1.25 -5.833,0Z" style="fill:#323331;fill-rule:nonzero;"/><path d="M4772.5,1144.583c0,-9.167 15,-27.917 22.917,-27.917c2.5,0 4.583,2.5 4.583,5.833c0,7.917 -8.333,13.333 -8.333,5.833c-0.417,-2.917 -2.917,0.417 -5.833,7.5c-7.083,16.25 -13.333,20.417 -13.333,8.75Z" style="fill:#323331;fill-rule:nonzero;"/><path d="M668.75,1137.917c-4.167,-7.083 5,-8.75 10.417,-2.5c4.167,5 4.167,6.25 -1.25,6.25c-3.75,0 -7.5,-1.667 -9.167,-3.75Z" style="fill:#323331;fill-rule:nonzero;"/><path d="M656.25,1120.417c-1.667,-2.5 -2.083,-5.417 -0.833,-6.667c2.917,-2.917 11.25,2.5 11.25,7.5c0,5 -7.083,5 -10.417,-0.833Z" style="fill:#323331;fill-rule:nonzero;"/><path d="M3204.167,1111.25c0,-5 24.583,-50.417 25,-45.417c0,2.917 1.667,4.167 4.167,2.917c5.833,-3.75 0,22.917 -7.5,34.583c-3.333,5 -7.917,9.167 -10.417,9.167c-2.917,0 -2.917,-1.667 0.417,-5c2.917,-2.917 5,-7.083 5,-9.167c-0.417,-2.5 -4.167,0 -8.333,5.417c-4.583,5.417 -8.333,8.75 -8.333,7.5Z" style="fill:#323331;fill-rule:nonzero;"/><path d="M3030,1100c-7.5,-1.667 -14.583,-4.167 -16.25,-5.417c-3.333,-3.75 2.917,-11.25 9.583,-11.25c3.75,0 5,2.083 3.333,4.583c-2.083,3.333 7.5,4.167 35.417,2.917c25.833,-1.25 37.5,-0.417 36.667,2.5c-2.917,9.167 -42.917,12.917 -68.75,6.667Z" style="fill:#323331;fill-rule:nonzero;"/><path d="M4621.667,1100c-7.5,-1.667 -14.583,-4.167 -16.25,-5.417c-3.333,-3.75 2.917,-11.25 9.583,-11.25c3.75,0 5,2.083 3.333,4.583c-2.083,3.333 7.5,4.167 35.417,2.917c25.833,-1.25 37.5,-0.417 36.667,2.5c-2.917,9.167 -42.917,12.917 -68.75,6.667Z" style="fill:#323331;fill-rule:nonzero;"/><path d="M1434.167,1087.083c-0.417,-8.333 0.417,-27.083 2.083,-41.667c2.917,-25.417 3.333,-25.833 5.417,-10c1.25,9.167 1.25,18.75 -0.417,20.833c-1.667,2.5 -3.75,13.75 -5,25c-1.25,15.833 -1.667,17.5 -2.083,5.833Z" style="fill:#323331;fill-rule:nonzero;"/><path d="M1441.667,1087.5c0,-7.5 1.667,-12.083 4.167,-10.417c2.5,1.25 4.167,6.25 4.167,10.417c0,4.167 -1.667,9.167 -4.167,10.417c-2.5,1.667 -4.167,-2.917 -4.167,-10.417Z" style="fill:#323331;fill-rule:nonzero;"/><path d="M1985,1094.583c-10.833,-4.167 -12.5,-6.667 -9.583,-13.333c1.667,-4.583 3.333,-5.833 3.333,-2.917c0.417,2.917 6.25,5 14.167,5.417c12.5,0.417 12.917,0.417 2.917,3.75c-10,3.333 -10,3.333 -0.833,3.75c5,0.417 9.167,2.5 9.167,4.583c0,5 -2.5,5 -19.167,-1.25Z" style="fill:#323331;fill-rule:nonzero;"/><path d="M2198.75,1094.583c-1.25,-3.333 0.417,-5.833 3.75,-5.833c3.333,0 5.833,2.5 5.833,5.833c0,2.917 -1.667,5.417 -3.75,5.417c-2.083,0 -4.583,-2.5 -5.833,-5.417Z" style="fill:#323331;fill-rule:nonzero;"/><path d="M3428.75,1093.75c7.5,-3.333 18.333,-6.25 24.167,-6.25c9.167,0 9.583,0.833 3.75,6.25c-3.333,3.75 -13.333,6.25 -24.167,6.25l-17.917,-0.417l14.167,-5.833Z" style="fill:#323331;fill-rule:nonzero;"/><path d="M4227.917,1079.583c1.667,-13.75 0.833,-21.25 -2.083,-21.25c-2.917,0 -3.333,-4.167 -1.25,-11.25c1.667,-6.667 2.5,-13.75 1.667,-16.667c-0.833,-2.5 0,-5.833 2.083,-7.083c4.583,-2.5 4.167,70.417 0,75c-1.667,1.667 -2.083,-6.667 -0.417,-18.75Z" style="fill:#323331;fill-rule:nonzero;"/><path d="M4399.583,1088.75c1.667,-6.667 2.5,-13.75 1.667,-16.667c-0.833,-2.5 0.417,-6.25 3.333,-7.917c3.75,-2.083 4.167,0.417 2.5,10.833c-1.667,7.5 -2.917,16.25 -2.917,19.167c0,3.333 -1.667,5.833 -3.75,5.833c-2.5,0 -2.5,-5 -0.833,-11.25Z" style="fill:#323331;fill-rule:nonzero;"/><path d="M4868.333,1095.417c-1.25,-2.5 -0.417,-6.667 2.083,-9.167c3.333,-3.333 4.583,-2.083 4.583,4.583c0,10 -2.083,11.667 -6.667,4.583Z" style="fill:#323331;fill-rule:nonzero;"/><path d="M4879.583,1093.333c-0.417,-4.583 -1.667,-10 -3.333,-11.667c-3.333,-3.333 -1.667,-35.833 2.083,-42.083c2.917,-5 4.167,-11.667 5.833,-30.417c0.417,-7.5 2.083,-14.583 3.75,-15.833c1.667,-0.833 2.083,8.75 0.833,21.25c-1.667,14.167 -0.833,22.917 1.667,22.917c4.167,0 3.333,15.833 -1.667,29.167c-1.667,5 -2.917,4.583 -5.417,-2.083c-3.333,-7.5 -3.75,-7.5 -3.75,2.5c-0.417,5.833 1.25,12.083 3.333,14.583c2.083,2.083 2.083,7.5 0.417,12.083c-3.333,8.333 -3.75,8.333 -3.75,-0.417Z" style="fill:#323331;fill-rule:nonzero;"/><path d="M1259.583,1086.667c0.833,-6.25 2.5,-12.5 4.167,-14.167c4.167,-4.167 3.333,7.083 -1.25,17.083c-3.333,7.083 -3.75,6.667 -2.917,-2.917Z" style="fill:#323331;fill-rule:nonzero;"/><path d="M1267.5,1062.083c-0.417,-18.333 0.417,-35.833 2.083,-38.333c3.75,-6.25 5,-13.333 6.25,-31.25c0.417,-7.5 2.083,-14.583 4.167,-15.833c1.667,-1.25 2.083,8.333 0.833,20.833c-1.667,15.417 -1.25,23.333 1.667,23.333c2.5,0 3.333,4.167 1.667,9.583c-2.5,9.167 -2.5,9.167 -5,-1.25c-2.083,-8.333 -3.333,-5.833 -6.25,12.5c-2.083,14.583 -1.667,22.917 1.25,24.167c3.75,1.25 0.417,23.75 -4.167,27.917c-0.833,0.833 -1.667,-13.75 -2.5,-31.667Z" style="fill:#323331;fill-rule:nonzero;"/><path d="M1379.583,1084.583c-0.417,-7.083 -2.083,-13.75 -3.75,-14.583c-2.083,-0.417 -2.083,-5.833 -0.417,-11.667c2.917,-10 2.917,-10 3.75,2.083c0.833,12.5 0.833,12.5 4.167,2.083c4.583,-14.583 5,-37.5 0.417,-37.5c-7.083,0 2.083,-22.083 9.167,-23.333c7.917,-1.25 9.583,10.417 3.333,22.5c-2.083,3.75 -6.667,22.083 -10,40.417c-3.333,18.333 -6.25,27.5 -6.667,20Z" style="fill:#323331;fill-rule:nonzero;"/><path d="M1583.333,1092.917c0,-2.083 2.083,-6.25 4.167,-9.583c3.75,-5.417 4.167,-5.417 4.583,0c0,3.333 4.583,-2.917 10,-14.583c5.833,-12.5 8.75,-25.417 7.5,-31.667c-1.25,-6.25 0,-12.5 2.917,-14.167c4.167,-2.5 4.583,-0.417 2.917,8.75c-2.083,7.5 2.083,2.917 10,-12.917c7.083,-13.333 13.333,-26.667 13.75,-29.167c0.417,-2.083 2.083,-6.667 4.167,-9.583c1.667,-2.917 2.5,-6.25 1.25,-7.5c-0.833,-0.833 -7.083,8.333 -13.75,20.833c-16.667,32.083 -17.5,25.833 -0.833,-8.75c10.417,-20.833 15.833,-27.917 21.25,-27.083c7.5,1.667 10,9.167 2.5,9.167c-2.083,0 -3.333,1.667 -2.083,3.333c1.25,2.083 -6.25,20.417 -16.25,40.417c-10.417,20.417 -18.75,39.167 -18.75,41.667c0,6.667 -24.583,43.75 -29.167,43.75c-2.5,0 -4.167,-1.25 -4.167,-2.917Z" style="fill:#323331;fill-rule:nonzero;"/><path d="M1650.417,1082.5c-0.417,-8.333 1.667,-16.667 3.75,-17.917c5,-2.917 5,7.917 0,22.917c-2.917,9.167 -3.333,8.75 -3.75,-5Z" style="fill:#323331;fill-rule:nonzero;"/><path d="M1659.583,1058.333c-0.417,-23.333 1.25,-43.333 5,-55c3.333,-9.583 5,-12.083 3.75,-5.417c-1.667,7.083 -2.917,30.833 -3.75,53.333c-0.417,22.5 -1.667,41.25 -2.5,42.5c-0.833,0.833 -2.083,-15 -2.5,-35.417Z" style="fill:#323331;fill-rule:nonzero;"/><path d="M1768.75,1090c-2.5,-2.5 -3.333,-9.167 -1.667,-15c2.917,-10 2.917,-10 3.75,2.083c0.833,12.5 0.833,12.5 4.167,2.083c4.583,-14.583 5,-37.5 0.417,-37.5c-2.5,0 -2.5,-5 -0.833,-11.25c1.667,-6.667 2.5,-13.75 1.667,-16.667c-0.833,-2.5 0,-5.833 2.083,-7.083c5,-2.917 3.75,72.5 -1.667,81.25c-2.917,5.417 -5,5.833 -7.917,2.083Z" style="fill:#323331;fill-rule:nonzero;"/><path d="M2367.917,1092.917c-3.333,-1.25 -3.75,-5 -1.667,-10.833c1.667,-5 2.5,-11.25 1.667,-14.167c-0.833,-2.5 0.417,-5.833 3.333,-7.5c3.333,-2.5 4.167,1.667 2.083,15c-1.667,13.333 -1.25,15.417 1.25,7.917c5,-13.75 5.417,-37.5 0.833,-37.5c-1.667,0 -2.5,-5 -1.25,-11.25c2.083,-10.833 2.5,-10.833 5.833,5c3.75,16.667 1.25,50.417 -4.167,53.333c-1.667,1.25 -5,0.833 -7.917,0Z" style="fill:#323331;fill-rule:nonzero;"/><path d="M3660.833,1081.25c-3.333,-21.667 -2.083,-43.333 2.5,-46.25c2.083,-1.25 2.5,6.667 0.833,19.167c-1.667,13.333 -1.25,22.917 1.25,24.583c2.5,1.25 2.917,6.25 1.25,10.833c-2.5,6.667 -3.75,5 -5.833,-8.333Z" style="fill:#323331;fill-rule:nonzero;"/><path d="M4109.583,1084.167c0,-7.5 1.667,-14.583 3.75,-15.833c4.167,-2.5 3.75,10 -0.833,21.25c-2.5,6.667 -3.333,5.833 -2.917,-5.417Z" style="fill:#323331;fill-rule:nonzero;"/><path d="M4118.75,1086.667c1.667,-6.667 1.667,-15 0,-18.75c-3.75,-8.333 -2.5,-38.75 1.25,-45c2.917,-5 4.167,-11.667 5.833,-30.417c0.417,-7.5 2.083,-14.583 3.75,-15.833c1.667,-0.833 2.083,8.75 0.833,21.25c-1.667,14.167 -0.833,22.917 1.667,22.917c4.167,0 3.333,15.833 -1.667,29.167c-1.667,5 -2.917,4.583 -5.417,-2.083c-3.333,-7.5 -3.75,-7.083 -3.75,2.917c-0.417,6.25 1.25,12.083 3.333,13.75c2.5,1.25 2.5,7.5 0.417,15c-5,16.667 -10,22.5 -6.25,7.083Z" style="fill:#323331;fill-rule:nonzero;"/><path d="M4410.833,1072.917c2.083,-15.833 1.25,-22.917 -1.667,-22.917c-3.333,0 -3.75,-3.333 -1.25,-9.167c1.667,-5.417 2.5,-11.667 1.667,-14.583c-0.833,-2.5 0.417,-5.833 3.333,-7.5c3.333,-2.5 4.167,1.667 2.083,15c-1.667,13.333 -1.25,15.417 1.25,7.917c5,-13.75 5.417,-36.25 1.25,-38.333c-2.083,-0.417 -2.083,-5.833 -0.417,-11.667c2.917,-10 2.917,-10 3.75,2.083c0.833,12.5 0.833,12.5 4.167,2.083c4.583,-14.583 5,-37.5 0.417,-37.5c-2.5,0 -2.5,-5 -0.833,-11.25c1.667,-6.667 2.5,-13.75 1.667,-16.667c-0.833,-2.5 0,-5.833 2.083,-7.083c5,-2.917 2.917,64.583 -2.917,93.333c-2.5,12.5 -5.833,35.417 -7.5,51.25c-1.25,15.417 -4.167,27.917 -5.833,27.917c-2.083,0 -2.5,-10.417 -1.25,-22.917Z" style="fill:#323331;fill-rule:nonzero;"/><path d="M4987.5,1085.417c0,-5.833 -1.667,-10.417 -3.75,-10.417c-2.5,0 -2.5,-5 -0.833,-11.25c1.667,-6.667 2.5,-13.75 1.667,-16.667c-0.833,-2.5 0,-5.833 1.667,-6.667c2.083,-1.25 3.75,10.833 3.75,26.667c0.417,15.833 0,28.75 -0.833,28.75c-0.833,0 -1.667,-4.583 -1.667,-10.417Z" style="fill:#323331;fill-rule:nonzero;"/><path d="M2030,1087.083c0.833,-2.5 3.333,-4.167 5.417,-4.167c2.083,0 4.583,1.667 5.417,4.167c0.833,2.5 -1.667,4.583 -5.417,4.583c-3.75,0 -6.25,-2.083 -5.417,-4.583Z" style="fill:#323331;fill-rule:nonzero;"/><path d="M2517.917,1077.917c0,-8.75 1.667,-16.667 3.75,-17.917c4.167,-2.5 3.75,9.167 -0.833,23.333c-2.917,9.167 -3.333,8.333 -2.917,-5.417Z" style="fill:#323331;fill-rule:nonzero;"/><path d="M2526.667,1055.417c0.417,-20.833 1.667,-39.583 3.75,-41.25c1.667,-1.667 1.667,5.833 0.417,16.25c-1.667,10.833 -0.833,21.667 1.25,24.583c2.5,3.75 2.5,11.25 -0.833,21.667c-4.583,15.417 -4.583,13.75 -4.583,-21.25Z" style="fill:#323331;fill-rule:nonzero;"/><path d="M2827.083,1082.917c-2.5,-7.083 -3.75,-7.917 -7.083,-3.333c-2.917,4.167 -3.333,3.333 -1.25,-2.917c3.333,-12.083 -1.667,-25 -7.083,-17.5c-2.5,3.75 -2.917,2.5 -1.25,-3.75c2.5,-9.583 -7.083,-33.333 -12.917,-31.25c-2.083,0.833 -4.167,-0.833 -5,-4.167c-1.25,-4.167 -0.833,-4.167 2.5,0.417c3.333,4.583 4.167,4.583 6.25,0c1.667,-4.167 3.333,-2.917 5,3.75c1.667,5 4.167,9.167 5.833,9.167c1.667,0 2.917,3.333 3.333,7.917c0.417,4.167 4.583,16.25 10,27.083c5,10.833 7.917,20.417 6.667,21.667c-1.25,1.25 -3.333,-1.667 -5,-7.083Z" style="fill:#323331;fill-rule:nonzero;"/><path d="M2996.667,1079.167c-5,-7.917 -9.167,-17.5 -8.75,-20.833c0,-4.167 1.25,-3.333 3.75,2.083l3.75,8.333l0.417,-8.333c0.417,-5.833 1.25,-6.667 2.917,-2.083c0.833,3.333 3.75,10.417 6.25,15.417c7.917,16.25 0.833,20.833 -8.333,5.417Z" style="fill:#323331;fill-rule:nonzero;"/><path d="M3104.167,1087.917c0,-2.5 2.083,-4.583 4.583,-4.583c2.083,0 2.917,-1.667 1.667,-4.167c-1.25,-2.083 -0.417,-4.167 1.667,-4.167c6.667,0 5.417,6.667 -1.667,12.5c-4.167,3.75 -6.25,3.75 -6.25,0.417Z" style="fill:#323331;fill-rule:nonzero;"/><path d="M4292.917,1077.917c0,-8.75 1.667,-16.667 3.75,-17.917c4.167,-2.5 3.75,9.167 -0.833,23.333c-2.917,9.167 -3.333,8.333 -2.917,-5.417Z" style="fill:#323331;fill-rule:nonzero;"/><path d="M4302.083,1077.917c1.25,-8.333 1.25,-17.917 -0.417,-20.417c-3.75,-5.833 -2.5,-36.667 1.667,-42.917c2.917,-5 4.167,-11.667 5.833,-30.417c0.417,-7.5 2.083,-14.583 3.75,-15.833c1.667,-0.833 2.083,8.75 0.833,21.25c-1.667,14.167 -0.833,22.917 1.667,22.917c4.167,0 3.333,15.833 -1.667,29.167c-1.667,5 -2.917,4.583 -5.417,-2.083c-3.333,-7.5 -3.75,-7.5 -3.75,2.5c-0.417,5.833 1.25,12.083 2.917,14.583c2.083,2.083 1.25,11.25 -2.083,20.417l-5.417,16.667l2.083,-15.833Z" style="fill:#323331;fill-rule:nonzero;"/><path d="M4695.833,1087.917c0,-2.5 2.083,-4.583 4.583,-4.583c2.083,0 2.917,-1.667 1.667,-4.167c-1.25,-2.083 -0.417,-4.167 1.667,-4.167c6.667,0 5.417,6.667 -1.667,12.5c-4.167,3.75 -6.25,3.75 -6.25,0.417Z" style="fill:#323331;fill-rule:nonzero;"/><path d="M3299.583,1080.417c-0.417,-2.083 -0.417,-4.583 0,-6.667c0.417,-1.667 0.833,-10.833 1.25,-20c0.417,-9.167 2.083,-17.5 3.75,-18.333c1.667,-1.25 2.5,9.167 2.083,22.917c0,13.75 -1.667,25 -3.333,25c-2.083,0 -3.75,-1.25 -3.75,-2.917Z" style="fill:#323331;fill-rule:nonzero;"/><path d="M1596.25,1060.417c5,-7.917 9.583,-14.583 10.417,-14.583c0.833,0 -1.667,6.667 -5.417,14.583c-3.75,7.917 -8.333,14.583 -10.417,14.583c-1.667,0 0.833,-6.667 5.417,-14.583Z" style="fill:#323331;fill-rule:nonzero;"/><path d="M2259.583,1067.5c0,-3.75 1.667,-9.167 3.333,-11.667c2.083,-2.5 4.167,-13.333 4.167,-24.167c0.417,-10.833 2.5,-20.417 4.583,-21.667c1.667,-1.25 2.083,8.333 0.833,20.833c-1.667,14.583 -1.25,23.333 1.25,23.333c2.5,0 3.333,5 2.083,11.667l-2.5,11.25l-2.917,-12.5c-2.083,-9.583 -2.917,-10.417 -3.333,-3.333c-0.417,10.833 -7.5,16.667 -7.5,6.25Z" style="fill:#323331;fill-rule:nonzero;"/><path d="M4995,1049.167c1.25,-16.25 0.417,-24.167 -2.5,-24.167c-7.083,0 0.833,-17.917 7.917,-18.75c5.417,-0.833 5.833,2.5 2.5,20.417c-6.667,37.5 -10.417,48.333 -7.917,22.5Z" style="fill:#323331;fill-rule:nonzero;"/><path d="M3310.833,1051.667c1.25,-10.417 0.417,-18.75 -2.083,-20.417c-2.5,-1.25 -3.75,-4.167 -2.5,-6.25c1.25,-1.667 2.5,-11.25 2.917,-20.833c0.417,-9.167 2.083,-17.917 4.167,-19.167c2.083,-1.25 2.5,6.667 0.833,18.75c-1.667,12.083 -0.833,23.333 1.25,26.25c2.5,3.75 2.083,11.25 -1.667,22.083l-5.417,16.667l2.5,-17.083Z" style="fill:#323331;fill-rule:nonzero;"/><path d="M3668.75,1052.917c1.25,-8.333 1.25,-17.917 -0.417,-20.417c-3.75,-5.833 -2.5,-36.667 1.667,-42.917c2.917,-5 4.167,-11.667 5.833,-30.417c0.417,-7.5 2.083,-14.583 3.75,-15.833c1.667,-0.833 2.083,8.75 0.833,21.25c-1.667,14.167 -0.833,22.917 1.667,22.917c4.167,0 3.333,15.833 -1.667,29.167c-1.667,5 -2.917,4.583 -5.417,-2.083c-3.333,-7.5 -3.75,-7.5 -3.75,2.5c-0.417,5.833 1.25,12.083 2.917,14.583c2.083,2.083 1.25,11.25 -2.083,20.417l-5.417,16.667l2.083,-15.833Z" style="fill:#323331;fill-rule:nonzero;"/><path d="M1834.583,1032.5c0.833,-14.583 2.917,-33.75 4.583,-42.917c1.667,-9.167 3.333,-20 3.75,-23.75c2.917,-17.083 6.667,-11.25 4.583,6.25c-1.667,10.833 -1.25,21.667 0.833,24.583c2.083,2.917 2.5,18.75 1.25,34.583l-2.083,29.167l-1.667,-31.25l-1.25,-31.25l-3.333,26.667c-1.667,14.583 -2.5,28.333 -1.25,30.417c1.25,1.667 0,3.333 -2.5,3.333c-3.333,0 -4.167,-8.333 -2.917,-25.833Z" style="fill:#323331;fill-rule:nonzero;"/><path d="M2877.917,1051.25c-4.583,-4.167 -3.333,-44.167 1.25,-51.25c2.917,-4.167 4.167,2.917 4.167,24.167c0,30 -0.417,32.5 -5.417,27.083Z" style="fill:#323331;fill-rule:nonzero;"/><path d="M2888.333,1026.25c-0.417,-16.25 -2.5,-31.25 -5,-32.5c-2.083,-1.25 -2.917,-7.5 -1.667,-13.75c1.25,-6.25 2.5,-14.583 3.333,-18.333c0.417,-4.167 2.083,-8.75 4.167,-10.417c1.667,-1.667 1.667,5 0,14.583c-1.667,9.583 -1.25,20 0.833,22.5c2.083,2.917 2.5,19.583 1.25,36.667l-2.083,31.25l-0.833,-30Z" style="fill:#323331;fill-rule:nonzero;"/><path d="M4236.25,1035c1.25,-13.333 0.417,-22.5 -2.083,-24.167c-2.917,-1.667 -3.333,-6.25 -1.25,-12.083c1.667,-5 2.5,-11.25 1.667,-14.167c-0.833,-2.5 0.417,-5.833 3.333,-7.5c3.333,-2.5 4.167,1.667 2.083,15c-1.667,13.333 -1.25,15.417 1.25,7.917c5,-14.167 5.417,-37.5 0.833,-37.5c-2.083,0 -2.5,-4.167 -1.25,-9.167c2.5,-9.583 2.5,-9.583 5,0.833c2.083,8.333 3.333,5.833 6.25,-12.5c2.083,-14.583 1.667,-22.917 -1.25,-24.167c-2.917,-0.833 -2.917,-5.833 -0.833,-13.75c2.083,-6.667 3.75,-13.333 3.75,-14.583c-0.417,-1.25 0.417,-2.917 1.25,-3.75c3.333,-3.333 2.917,67.5 -0.417,75c-2.083,4.583 -5.833,22.5 -8.75,39.583c-6.25,42.083 -12.083,63.333 -9.583,35Z" style="fill:#323331;fill-rule:nonzero;"/><path d="M4469.583,1049.167c-3.75,-7.083 -2.5,-33.333 3.333,-70c5.833,-35.833 8.333,-28.333 8.75,24.167c0.417,45.833 0,48.333 -2.083,19.583l-2.917,-33.333l-1.667,33.333c-1.667,22.083 -3.333,30.833 -5.417,26.25Z" style="fill:#323331;fill-rule:nonzero;"/><path d="M1428.333,1044.583c-2.083,-4.167 -3.333,-16.667 -2.917,-27.083l0.417,-19.583l3.75,16.667c5,20 3.75,42.083 -1.25,30Z" style="fill:#323331;fill-rule:nonzero;"/><path d="M3133.333,1044.167c0,-6.667 7.5,-12.917 11.25,-9.167c1.25,1.25 -0.833,5 -4.583,8.75c-5.833,5.833 -6.667,5.833 -6.667,0.417Z" style="fill:#323331;fill-rule:nonzero;"/><path d="M1669.167,1035.417c3.333,-15.417 5.833,-18.75 5.833,-7.917c0,4.167 -2.083,10.833 -4.167,14.167c-3.333,4.583 -3.75,2.917 -1.667,-6.25Z" style="fill:#323331;fill-rule:nonzero;"/><path d="M2665.417,1043.333c-3.333,-3.333 1.25,-14.167 5.833,-14.167c4.583,0 5,11.25 0,14.167c-1.667,1.25 -4.583,1.25 -5.833,0Z" style="fill:#323331;fill-rule:nonzero;"/><path d="M4725.833,1041.25c0.833,-2.917 4.167,-6.25 7.083,-7.083c3.333,-1.25 5,0.417 3.75,3.75c-0.833,2.917 -4.167,6.25 -7.083,7.083c-3.333,1.25 -5,-0.417 -3.75,-3.75Z" style="fill:#323331;fill-rule:nonzero;"/><path d="M2277.083,1027.917c1.25,-8.333 1.25,-17.917 -0.417,-20.417c-4.583,-7.083 -2.083,-37.917 3.333,-42.917c2.5,-2.917 2.917,2.5 1.25,15.833c-1.667,10.833 -1.25,22.083 0.833,25c2.5,3.333 2.083,10.833 -1.667,21.667l-5.417,16.667l2.083,-15.833Z" style="fill:#323331;fill-rule:nonzero;"/><path d="M2385.833,1022.5c1.25,-11.25 5,-29.167 8.333,-40c2.917,-11.25 3.75,-20 2.083,-20c-3.333,0 -12.917,37.083 -12.917,51.25c0,5.417 -1.667,7.083 -3.75,5c-4.583,-5 4.167,-49.167 13.75,-69.583c7.083,-14.583 21.25,-32.5 26.25,-32.5c1.25,0 0,2.917 -2.917,6.25c-2.5,3.333 -4.167,8.333 -2.917,11.25c0.833,2.917 -1.667,12.5 -5.833,20.833c-4.583,8.75 -7.917,19.167 -7.917,23.75c0,8.75 -12.083,59.583 -15,62.5c-0.833,1.25 -0.417,-7.5 0.833,-18.75Z" style="fill:#323331;fill-rule:nonzero;"/><path d="M2536.25,1028.333c1.25,-8.333 0.417,-17.5 -1.25,-20.833c-3.75,-6.25 -2.5,-36.667 2.083,-42.917c1.667,-2.083 3.75,-12.917 4.167,-24.167c0.417,-10.833 2.917,-25.833 5,-33.333c2.083,-7.083 3.75,-19.583 3.75,-26.667c0,-7.5 2.083,-13.75 4.583,-13.75c4.583,0 2.083,27.083 -5,54.167c-4.583,18.333 -5,41.667 0,41.667c3.333,0 2.083,16.25 -2.5,29.167c-1.667,5 -2.917,4.583 -5.417,-2.083c-3.333,-7.5 -3.75,-7.5 -3.75,2.5c-0.417,5.833 1.25,12.083 3.333,14.583c2.083,2.083 1.25,10.833 -2.083,20.417l-5.417,16.667l2.5,-15.417Z" style="fill:#323331;fill-rule:nonzero;"/><path d="M1786.667,1015.833c1.25,-16.25 0.417,-24.167 -2.5,-24.167c-3.333,0 -3.75,-3.333 -1.25,-9.167c1.667,-5.417 2.5,-11.667 1.667,-14.583c-0.833,-2.5 0.417,-5.833 3.333,-7.5c3.333,-2.5 4.167,1.667 2.083,15c-1.667,13.333 -1.25,15.417 1.25,7.917c5,-13.75 5.417,-36.25 1.25,-38.333c-2.083,-0.417 -2.083,-5.833 -0.417,-11.667c2.917,-10 2.917,-10 3.75,2.083c0.833,12.5 0.833,12.5 4.167,2.083c4.583,-14.583 5,-37.5 0.417,-37.5c-2.5,0 -2.5,-5 -0.833,-11.25c1.667,-6.667 2.5,-13.75 1.667,-16.667c-0.833,-2.5 0.417,-5.833 2.917,-7.5c3.333,-2.083 4.167,2.917 2.5,17.083c-1.667,15.417 -1.25,17.083 1.25,7.917c5,-17.917 5.417,-39.583 0.417,-39.583c-2.5,0 -2.5,-3.75 -0.417,-9.167c1.667,-5.417 2.5,-11.667 1.667,-14.583c-0.833,-2.5 0.417,-5.833 3.333,-7.5c3.333,-2.5 4.167,1.667 2.083,15c-1.667,13.333 -1.25,15.417 1.25,7.917c5,-13.75 5.417,-36.25 1.25,-38.333c-2.083,-0.417 -2.083,-5.833 -0.417,-11.667c2.917,-10 2.917,-10 3.75,2.083c0.833,11.667 1.25,11.25 6.667,-6.25c6.25,-20 5.417,-12.917 -2.917,31.25c-2.083,11.667 -5,32.083 -6.25,45.833c-1.25,13.75 -3.75,28.75 -5.833,33.333c-2.917,7.5 -5.833,22.5 -17.5,91.667c-6.667,40.417 -10.833,53.333 -8.333,26.25Z" style="fill:#323331;fill-rule:nonzero;"/><path d="M3123.75,1029.167c-1.25,-5.417 -2.083,-10.417 -1.667,-10.833c0.417,-0.833 27.083,-1.667 59.167,-2.083c47.5,-0.833 58.75,0 59.583,5c0.833,5 -8.333,5.417 -55,4.583c-51.25,-1.25 -56.25,-0.833 -57.5,6.25c-1.25,5.833 -2.083,5.417 -4.583,-2.917Z" style="fill:#323331;fill-rule:nonzero;"/><path d="M4717.083,1034.583c0,-2.5 -1.667,-7.917 -2.917,-11.25c-2.5,-6.25 3.75,-6.667 59.167,-5.833l62.083,1.25l1.25,10.417c0.833,9.167 0.417,9.583 -3.333,3.333c-4.167,-6.667 -11.667,-7.5 -58.333,-7.5c-47.5,0 -53.75,0.833 -55.417,7.5c-1.25,3.75 -2.083,5 -2.5,2.083Z" style="fill:#323331;fill-rule:nonzero;"/><path d="M2193.75,1010.833c1.667,-13.333 2.5,-13.75 6.25,-2.5c2.917,9.167 3.333,8.75 3.75,-5c0.417,-8.75 -1.25,-15.833 -3.333,-15.833c-3.333,0 -2.083,-16.25 2.5,-29.167c1.667,-5 2.917,-4.583 5.417,2.083c2.917,7.083 3.75,5.833 3.75,-5c0.417,-7.5 -1.25,-13.75 -3.75,-13.75c-2.5,0 -2.5,-3.75 0,-10.833c2.5,-5.833 3.333,-12.083 2.083,-14.167c-1.25,-2.083 -0.417,-4.583 1.667,-5.833c2.083,-1.667 5,1.667 5.833,6.667c1.25,6.25 2.083,3.75 2.5,-5.833c0,-8.75 -1.25,-15.833 -3.333,-15.833c-2.083,0 -2.917,-3.75 -1.667,-8.333c1.25,-4.583 5,-8.333 8.333,-8.333c4.583,0 5.417,4.167 3.333,20c-1.667,10.833 -4.583,26.25 -6.667,34.167c-2.083,7.917 -3.75,22.083 -3.75,31.667c0,9.167 -1.667,18.333 -3.75,20.833c-2.083,2.083 -4.583,10 -5.417,17.917c-0.833,9.167 -3.75,14.583 -7.917,15.417c-4.583,0.417 -6.25,-2.083 -5.833,-8.333Z" style="fill:#323331;fill-rule:nonzero;"/><path d="M1433.333,1008.333c0,-7.917 1.25,-8.75 5,-5c3.75,3.75 3.75,6.25 0,10c-3.75,3.75 -5,2.917 -5,-5Z" style="fill:#323331;fill-rule:nonzero;"/><path d="M3319.583,1002.917c1.25,-8.333 0.417,-17.917 -2.083,-20.833c-2.5,-2.917 -3.333,-7.5 -1.667,-10c2.083,-2.917 4.583,-1.667 7.5,4.583c3.333,6.667 2.917,13.75 -0.833,25.833l-5.417,16.25l2.5,-15.833Z" style="fill:#323331;fill-rule:nonzero;"/><path d="M3808.333,1013.333c0,-6.667 23.75,-9.167 80,-9.167c41.25,0 53.75,1.25 52.5,5.417c-2.083,5.833 -132.5,9.583 -132.5,3.75Z" style="fill:#323331;fill-rule:nonzero;"/><path d="M2786.667,1005.417c-1.667,-6.25 -0.417,-8.333 4.583,-7.5c3.75,0.417 7.083,4.167 7.917,8.75c0.833,5.833 0.417,6.667 -2.5,2.083c-3.333,-4.583 -4.167,-4.583 -5.833,0c-1.25,3.75 -2.917,2.5 -4.167,-3.333Z" style="fill:#323331;fill-rule:nonzero;"/><path d="M3427.917,994.167c1.667,-13.75 0.833,-21.25 -2.917,-23.333c-3.75,-2.083 -3.75,-3.75 -0.417,-5.833c2.5,-1.667 4.583,-0.417 4.583,2.5c0,4.167 0.833,4.167 3.75,-0.417c4.583,-7.083 0.833,32.5 -3.75,40.833c-2.083,3.333 -2.5,-2.917 -1.25,-13.75Z" style="fill:#323331;fill-rule:nonzero;"/><path d="M1285.417,994.583c1.25,-8.333 1.25,-17.917 -0.417,-20.417c-4.583,-7.083 -2.083,-37.917 3.333,-42.917c2.5,-2.917 2.917,2.5 1.25,15.833c-1.667,10.833 -1.25,22.083 0.833,25c2.5,3.333 2.083,10.833 -1.667,21.667l-5.417,16.667l2.083,-15.833Z" style="fill:#323331;fill-rule:nonzero;"/><path d="M4894.167,987.5c-2.917,-23.75 -2.083,-35.417 2.917,-40c1.667,-1.667 1.667,5.833 0.417,16.667c-1.667,11.667 -1.25,21.25 1.25,22.5c2.083,1.667 2.5,7.5 1.25,13.333c-2.5,8.333 -3.333,5.833 -5.833,-12.5Z" style="fill:#323331;fill-rule:nonzero;"/><path d="M2090.833,990c0.833,-7.083 2.5,-15.833 3.333,-19.167c2.083,-5.417 2.5,-5.417 5.833,0c2.5,3.333 3.75,9.167 3.75,12.5c0,4.167 -1.25,3.333 -3.75,-2.083c-2.917,-7.083 -3.75,-6.25 -3.75,5c-0.417,7.083 2.083,13.75 5,15c2.5,1.25 1.25,2.083 -3.333,1.667c-7.083,-0.417 -8.333,-2.5 -7.083,-12.917Z" style="fill:#323331;fill-rule:nonzero;"/><path d="M4004.167,997.5c0,-2.5 2.917,-5.833 6.25,-7.5c4.167,-1.25 6.25,0.417 6.25,5.417c0,4.167 -2.917,7.5 -6.25,7.5c-3.333,0 -6.25,-2.5 -6.25,-5.417Z" style="fill:#323331;fill-rule:nonzero;"/><path d="M2285,958.75c0.417,-20.417 1.25,-38.333 2.5,-39.583c1.25,-1.25 2.083,14.583 2.083,35c-0.417,20.833 -1.667,38.333 -2.917,39.583c-0.833,1.25 -1.667,-14.583 -1.667,-35Z" style="fill:#323331;fill-rule:nonzero;"/><path d="M4020.833,990c0,-3.75 2.917,-6.667 6.667,-6.667c3.75,0 5.833,2.083 5,5c-2.5,7.5 -11.667,8.75 -11.667,1.667Z" style="fill:#323331;fill-rule:nonzero;"/><path d="M4136.25,970.833c-3.333,-32.5 -2.917,-41.25 1.667,-44.167c2.5,-1.667 2.917,5.417 1.25,19.167c-1.667,12.5 -1.25,22.917 1.25,24.583c2.083,1.25 2.5,7.083 1.25,12.917c-2.083,7.917 -3.333,5.417 -5.417,-12.5Z" style="fill:#323331;fill-rule:nonzero;"/><path d="M1850.833,977.083c0,-4.583 1.667,-12.917 3.333,-18.75c2.5,-8.333 3.333,-8.75 3.333,-2.083c0,4.583 -1.667,12.917 -3.333,18.75c-2.5,8.333 -3.333,8.75 -3.333,2.083Z" style="fill:#323331;fill-rule:nonzero;"/><path d="M4319.583,962.5c-3.333,-32.5 -2.917,-41.25 1.667,-44.167c2.5,-1.667 2.917,5.417 1.25,19.167c-1.667,12.5 -1.25,22.917 1.25,24.583c2.083,1.25 2.5,7.083 1.25,12.917c-2.083,7.917 -3.333,5.417 -5.417,-12.5Z" style="fill:#323331;fill-rule:nonzero;"/><path d="M2893.75,954.167c0.833,-30.833 6.667,-48.75 15.833,-48.75c3.75,0 5.417,2.5 4.167,6.25c-2.083,4.583 -2.917,4.583 -5.833,0c-2.917,-4.167 -3.75,-3.75 -3.75,2.083c0,3.75 2.083,7.083 4.583,7.083c2.083,0 2.917,2.083 1.25,4.583c-2.083,3.333 -3.75,3.333 -5.833,-0.417c-4.583,-7.5 -9.167,9.167 -6.25,21.667c1.25,5 0.417,15.417 -1.25,22.083c-2.917,9.583 -3.75,6.667 -2.917,-14.583Z" style="fill:#323331;fill-rule:nonzero;"/><path d="M4485,950.417c0.417,-13.75 1.667,-25.833 2.917,-27.083c1.25,-1.25 2.083,8.75 1.667,22.5c-0.417,13.75 -1.667,25.833 -2.917,27.083c-1.25,1.25 -1.667,-9.167 -1.667,-22.5Z" style="fill:#323331;fill-rule:nonzero;"/><path d="M4902.917,961.667c1.25,-8.333 0.417,-17.5 -1.25,-20.833c-3.75,-5.833 -2.5,-36.25 1.667,-42.917c1.667,-2.083 2.917,-6.667 3.333,-9.583c1.667,-10 5.833,-10.833 5.833,-1.667c0,5 1.667,9.167 3.75,9.167c3.333,0 2.083,16.25 -2.5,29.167c-1.667,5 -2.917,4.583 -5.417,-2.083c-3.333,-7.5 -3.75,-7.5 -3.75,2.5c-0.417,5.833 1.25,12.083 3.333,14.583c2.083,2.083 1.25,10.833 -2.083,20.417l-5.417,16.667l2.5,-15.417Z" style="fill:#323331;fill-rule:nonzero;"/><path d="M1293.333,926.25c0.417,-20.833 1.667,-39.583 3.75,-41.25c1.667,-1.667 1.667,5.833 0.417,16.667c-1.667,11.667 -1.25,21.25 1.25,22.5c2.5,2.083 2.083,9.583 -0.833,21.667c-4.583,17.917 -4.583,17.083 -4.583,-19.583Z" style="fill:#323331;fill-rule:nonzero;"/><path d="M3685.833,937.5c-2.917,-23.75 -2.083,-35.417 2.917,-40c1.667,-1.667 1.667,5.833 0.417,16.667c-1.667,11.667 -1.25,21.25 1.25,22.5c2.083,1.667 2.5,7.5 1.25,13.333c-2.5,8.333 -3.333,5.833 -5.833,-12.5Z" style="fill:#323331;fill-rule:nonzero;"/><path d="M4069.167,946.25c5.833,-7.083 13.333,-11.25 16.667,-10c3.333,1.25 5.833,2.917 5.833,4.167c0,1.25 -2.5,1.25 -5.833,0c-7.5,-2.917 -15,4.583 -12.083,12.083c1.25,3.75 -0.833,5.833 -6.667,5.833c-8.333,0 -8.333,-0.417 2.083,-12.083Z" style="fill:#323331;fill-rule:nonzero;"/><path d="M4143.75,944.583c1.25,-8.333 1.25,-17.917 -0.417,-20.417c-3.75,-5.833 -2.5,-36.25 1.667,-42.5c1.25,-2.083 3.75,-0.417 5.417,4.167c2.5,6.667 3.333,6.667 3.333,0.833c0.417,-3.75 -1.667,-8.333 -3.75,-9.583c-2.5,-1.667 -3.333,-4.167 -2.5,-5.833c1.25,-1.667 2.5,-10.417 2.917,-19.583c0.417,-8.75 2.5,-18.333 4.583,-20.833c1.667,-2.5 3.75,-13.333 3.75,-24.167c0.417,-10.833 2.5,-20.417 4.583,-21.667c2.083,-1.25 2.5,7.083 0.833,19.167c-1.667,12.5 -1.25,22.917 1.25,24.583c2.083,1.25 2.5,7.083 0.833,12.917c-2.917,10 -2.917,10 -3.75,-2.083l-0.833,-12.5l-3.75,12.5c-2.083,7.083 -2.917,24.167 -1.25,38.333c2.5,27.083 -1.25,42.917 -7.083,27.917c-2.917,-6.667 -3.333,-6.667 -3.333,2.917c-0.417,5.833 1.25,12.083 2.917,14.583c2.083,2.083 1.25,11.25 -2.083,20.417l-5.417,16.667l2.083,-15.833Z" style="fill:#323331;fill-rule:nonzero;"/><path d="M4436.25,931.667c1.667,-15.833 0.833,-23.333 -2.083,-23.333c-3.333,0 -3.75,-3.333 -0.833,-10c2.083,-5.417 2.5,-10.833 1.667,-12.083c-1.25,-1.25 0,-3.333 2.5,-5c3.333,-2.083 4.167,1.667 2.5,13.333l-2.5,15.833l6.25,-16.667c4.583,-12.5 5.417,-13.333 3.75,-4.167c-1.25,7.083 -4.167,23.333 -5.833,37.083c-4.583,31.667 -8.333,35.417 -5.417,5Z" style="fill:#323331;fill-rule:nonzero;"/><path d="M1675.417,942.917c-0.417,-5 -2.917,-9.583 -5.417,-10.833c-4.167,-1.25 -4.167,-2.917 0.417,-8.333c2.917,-4.167 7.083,-7.083 9.167,-7.083c4.583,0 4.167,15.833 -0.417,27.083c-3.333,7.917 -3.75,7.917 -3.75,-0.833Z" style="fill:#323331;fill-rule:nonzero;"/><path d="M2551.667,938.75c7.5,-36.667 10.833,-69.583 7.5,-72.917c-2.083,-2.083 -2.5,-10.417 -0.833,-17.917c1.667,-7.917 2.083,-15 1.25,-16.25c-1.25,-0.833 -0.833,-4.167 1.25,-7.083c2.083,-3.75 4.167,-2.917 6.25,2.917c2.5,6.667 3.333,6.667 3.333,0.833c0.417,-3.75 -1.667,-8.333 -3.75,-9.583c-2.5,-1.667 -3.333,-4.167 -2.083,-6.25c1.25,-1.667 2.5,-11.25 2.917,-20.833c0.417,-9.167 2.083,-17.917 4.167,-19.167c1.667,-1.25 3.75,-9.167 4.167,-17.5l0.417,-15.417l1.667,14.583c1.25,7.917 3.333,15.417 5,16.667c1.667,1.25 1.667,6.667 0,12.5c-2.917,10 -2.917,10 -3.75,-2.083l-0.833,-12.5l-3.75,12.5c-2.083,7.083 -2.917,24.167 -1.25,38.333c2.5,27.083 -1.25,42.917 -7.083,27.917c-2.5,-6.667 -3.333,-6.25 -3.333,3.333c-0.417,6.25 1.25,12.083 2.917,13.333c3.75,2.083 0.833,29.167 -7.5,64.167c-5,22.083 -10.833,31.25 -6.667,10.417Z" style="fill:#323331;fill-rule:nonzero;"/><path d="M4327.5,935c1.25,-10 0.417,-18.75 -2.083,-20c-2.5,-1.667 -3.333,-5 -2.5,-7.917c0.833,-2.917 2.5,-10 3.75,-15.833c2.917,-13.333 15,-14.583 15,-1.25c0,11.667 -7.083,16.667 -9.583,7.083c-1.25,-5 -2.083,-4.167 -2.5,3.333c0,5.833 1.25,12.083 2.917,14.583c2.083,2.083 1.25,11.25 -1.667,20.417l-5.833,16.667l2.5,-17.083Z" style="fill:#323331;fill-rule:nonzero;"/><path d="M3255.417,922.917c0,-11.25 0.833,-15.833 1.667,-9.167c0.833,6.25 0.833,15.417 0,20.833c-0.833,5 -1.667,0 -1.667,-11.667Z" style="fill:#323331;fill-rule:nonzero;"/><path d="M4846.667,929.167c0,-7.917 0.833,-11.25 2.083,-7.083c0.833,3.75 0.833,10.417 0,14.583c-1.25,3.75 -2.083,0.417 -2.083,-7.5Z" style="fill:#323331;fill-rule:nonzero;"/><path d="M2293.75,911.25c-3.333,-24.583 -2.083,-28.75 7.917,-30.417c3.75,-0.417 4.583,2.5 3.333,10.417l-2.5,10.833l-2.917,-10.417c-2.5,-9.167 -2.917,-8.333 -3.333,5c-0.417,8.333 1.25,15.833 2.917,16.667c2.083,0.833 2.083,5.833 0.833,11.667c-2.5,8.333 -3.75,5.417 -6.25,-13.75Z" style="fill:#323331;fill-rule:nonzero;"/><path d="M3244.167,921.667c-1.667,-5.417 -2.083,-10.833 -0.833,-12.083c4.167,-4.583 7.5,1.667 5.833,12.083l-1.667,9.583l-3.333,-9.583Z" style="fill:#323331;fill-rule:nonzero;"/><path d="M5036.667,926.25c2.5,-0.833 5,-5.417 5,-10c0,-4.167 2.917,-7.917 6.25,-7.917c3.333,0 6.25,1.667 6.25,3.333c0,5 -14.167,17.5 -19.167,17.083c-2.083,0 -1.25,-1.25 1.667,-2.5Z" style="fill:#323331;fill-rule:nonzero;"/><path d="M3692.917,889.583c-0.833,-20 0,-38.333 1.667,-41.25c3.75,-5.833 5,-12.917 6.25,-30.833c0.417,-7.5 2.083,-14.583 4.167,-15.833c1.667,-1.25 2.083,8.333 0.833,20.833c-1.667,15.417 -1.25,23.333 1.667,23.333c2.5,0 3.333,4.167 1.667,9.583c-2.5,9.167 -2.5,9.167 -5,-1.25c-2.083,-8.333 -3.333,-5.833 -5.833,12.083c-2.083,13.333 -1.667,23.333 0.417,25c2.917,1.667 2.5,8.333 -0.417,18.75c-4.167,15 -4.583,13.75 -5.417,-20.417Z" style="fill:#323331;fill-rule:nonzero;"/><path d="M3820.833,915c0,-4.583 10.833,-5.833 54.167,-6.25c46.25,-0.833 54.167,0 54.167,5.833c0,5.417 -7.917,6.25 -54.167,6.25c-43.75,0 -54.167,-1.25 -54.167,-5.833Z" style="fill:#323331;fill-rule:nonzero;"/><path d="M3016.667,912.917c0,-8.333 22.083,-27.917 24.167,-21.667c1.25,3.333 3.333,2.083 6.667,-4.167c2.5,-5 8.333,-10 12.917,-10.833c27.5,-5.417 47.083,-5.833 60,-0.417l14.167,5.833l-22.083,0.833c-29.583,1.25 -50,7.083 -68.333,19.583c-8.333,5.417 -15,9.167 -15,7.5c0,-1.25 -2.917,0 -6.25,2.917c-4.583,3.75 -6.25,3.75 -6.25,0.417Z" style="fill:#323331;fill-rule:nonzero;"/><path d="M3937.5,914.167c0,-4.583 10.417,-12.917 16.667,-12.917c3.333,0 9.583,-1.667 13.75,-3.333c10.417,-4.167 8.75,4.583 -2.083,12.083c-9.167,6.25 -28.333,9.167 -28.333,4.167Z" style="fill:#323331;fill-rule:nonzero;"/><path d="M4493.333,912.083c0.417,-2.917 3.75,-5.417 7.5,-6.25c4.583,-0.417 6.25,1.25 4.583,5.417c-1.667,4.583 -3.333,5 -5.417,1.25c-2.5,-3.75 -3.75,-3.75 -5.417,-0.417c-1.667,3.333 -2.083,3.333 -1.25,0Z" style="fill:#323331;fill-rule:nonzero;"/><path d="M2448.333,906.667c3.333,-9.167 15,-12.5 13.333,-3.75c-0.833,4.167 -4.583,7.917 -8.75,8.75c-5,0.833 -6.25,-0.417 -4.583,-5Z" style="fill:#323331;fill-rule:nonzero;"/><path d="M4261.25,892.083c1.667,-13.75 0.833,-21.25 -2.083,-21.25c-2.917,0 -3.333,-4.167 -1.25,-11.25c1.667,-6.667 2.5,-13.75 1.667,-16.667c-0.833,-2.5 0,-5.833 2.083,-7.083c4.583,-2.5 4.167,70.417 0,75c-1.667,1.667 -2.083,-6.667 -0.417,-18.75Z" style="fill:#323331;fill-rule:nonzero;"/><path d="M4725,907.917c0,-2.083 2.083,-3.75 4.167,-3.75c2.5,0 4.167,-2.083 4.167,-5c0,-2.5 -1.25,-3.75 -2.5,-2.083c-2.917,2.917 -14.167,-7.083 -14.167,-12.917c0,-5.833 -46.667,-0.833 -61.25,6.667c-7.5,3.75 -15,5.417 -16.667,3.75c-4.167,-4.167 3.75,-16.25 11.667,-17.917c45.417,-9.167 61.25,-6.667 78.75,12.083c14.583,15.417 15.833,21.667 4.167,22.5c-4.583,0.417 -8.333,-0.833 -8.333,-3.333Z" style="fill:#323331;fill-rule:nonzero;"/><path d="M1519.167,875c-3.75,-30.833 -4.167,-33.333 -6.667,-18.75c-1.25,9.167 -2.083,-6.25 -2.083,-34.167c0,-55 5,-64.583 6.667,-13.75c0.417,17.083 2.917,34.583 4.583,38.75c2.083,3.75 3.333,20 2.5,35.417l-1.25,27.917l-3.75,-35.417Z" style="fill:#323331;fill-rule:nonzero;"/><path d="M2475,901.667c0,-2.917 8.75,-6.667 20,-8.333c18.75,-3.75 19.583,-4.167 20.833,-19.583c0.833,-8.333 2.917,-15.417 5,-15.417c2.083,0 2.917,6.25 1.25,13.75c-1.667,9.167 -0.833,12.083 2.083,9.167c2.5,-2.083 5,-8.75 6.25,-14.583c1.25,-8.75 2.083,-7.917 2.5,3.333c0,7.5 -2.5,19.167 -5.833,26.25c-6.25,11.667 -7.917,12.5 -29.167,11.25c-13.75,-0.833 -22.917,-3.333 -22.917,-5.833Z" style="fill:#323331;fill-rule:nonzero;"/><path d="M4623.333,904.583c-2.5,-4.167 3.75,-21.25 7.5,-21.25c2.5,0 0,20.833 -2.917,23.333c-1.25,1.25 -3.333,0.417 -4.583,-2.083Z" style="fill:#323331;fill-rule:nonzero;"/><path d="M5076.667,903.75c-4.167,-7.083 2.5,-10.833 17.917,-9.583c8.75,0.417 20.833,0.833 26.667,1.25c6.25,0.417 12.083,2.917 13.333,6.25c2.083,5 -2.917,5.833 -26.667,5.833c-15.833,0 -30,-2.083 -31.25,-3.75Z" style="fill:#323331;fill-rule:nonzero;"/><path d="M1302.917,879.167c-3.333,-32.5 -2.917,-41.25 1.667,-44.167c2.5,-1.667 2.917,5.417 1.25,19.167c-1.667,12.5 -1.25,22.917 1.25,24.583c2.083,1.25 2.5,7.083 1.25,12.917c-2.083,7.917 -3.333,5.417 -5.417,-12.5Z" style="fill:#323331;fill-rule:nonzero;"/><path d="M1511.25,897.083c-0.833,-2.083 -0.417,-7.917 1.667,-13.75c2.917,-9.583 2.917,-9.583 3.333,3.333c0.417,12.917 -1.25,16.667 -5,10.417Z" style="fill:#323331;fill-rule:nonzero;"/><path d="M1575,892.917c0,-2.5 2.083,-6.25 4.167,-7.5c2.5,-1.667 3.333,-4.167 2.083,-6.25c-1.25,-2.083 -0.417,-4.583 2.083,-6.25c2.5,-1.667 3.333,-4.583 2.083,-6.667c-1.667,-2.083 -0.417,-3.75 1.667,-3.75c2.5,0 4.583,2.5 5,5.417c0,2.5 7.5,-10.833 16.667,-30c20.833,-44.167 20.417,-49.167 -0.417,-8.75c-8.75,17.083 -16.25,28.75 -16.667,25.833c0,-2.917 1.667,-8.333 3.75,-12.5c2.083,-3.75 7.917,-16.25 12.917,-27.917c18.333,-42.5 27.083,-60.417 30.417,-60.417c1.667,0 0,6.667 -3.333,15c-9.167,22.083 -7.5,22.917 4.583,2.917c10.833,-18.333 16.25,-23.75 10.833,-10.417c-4.583,10.417 -24.583,53.333 -39.583,84.167c-7.917,15.833 -15.833,26.667 -18.75,25.833c-3.75,-0.833 -5,1.667 -3.333,6.25c1.25,4.167 0.417,10.417 -1.667,13.75c-3.75,5.417 -4.167,5.417 -4.167,0c0,-5.417 -0.417,-5.417 -4.167,0c-2.5,3.75 -4.167,4.167 -4.167,1.25Z" style="fill:#323331;fill-rule:nonzero;"/><path d="M2026.25,888.75c-3.333,-7.917 -0.833,-9.167 12.5,-6.667c14.167,2.917 14.583,7.917 0.417,10.833c-6.667,1.25 -11.667,0 -12.917,-4.167Z" style="fill:#323331;fill-rule:nonzero;"/><path d="M2842.917,876.25c3.75,-3.75 7.917,-5.833 9.583,-4.583c4.167,4.167 -2.5,11.667 -10,11.667c-6.25,0 -6.25,-0.417 0.417,-7.083Z" style="fill:#323331;fill-rule:nonzero;"/><path d="M1889.167,860.833c0.833,-10 18.333,-35.833 25,-35.833c2.083,0 0.833,2.917 -2.083,7.083c-3.333,3.75 -5.417,10 -4.583,14.583c0.833,4.167 -0.417,7.5 -2.917,7.5c-2.083,0 -5.417,3.75 -6.667,8.333c-3.75,11.667 -9.167,10.417 -8.75,-1.667Z" style="fill:#323331;fill-rule:nonzero;"/><path d="M3232.083,865c-1.667,-4.167 -1.25,-6.25 1.25,-4.583c2.5,1.25 4.167,0.417 4.167,-2.083c0,-2.917 -3.75,-5.833 -8.333,-7.083c-5,-1.25 -8.333,-5 -7.5,-8.75c2.5,-11.667 10,-9.583 17.083,5.417c7.917,17.083 8.75,20.417 3.333,17.083c-2.083,-1.667 -4.583,-0.417 -5.417,2.5c-1.25,2.917 -2.917,2.083 -4.583,-2.5Z" style="fill:#323331;fill-rule:nonzero;"/><path d="M1310.417,852.917c1.25,-8.333 1.25,-17.917 -0.417,-20.417c-3.75,-5.833 -2.5,-36.667 1.667,-42.917c1.667,-2.083 2.917,-6.667 3.333,-9.583c1.667,-10 5.833,-10.833 5.833,-1.667c0,5 1.667,9.167 3.75,9.167c3.333,0 2.083,16.25 -2.5,29.167c-1.667,5 -2.917,4.583 -5.417,-2.083c-3.333,-7.5 -3.75,-7.5 -3.75,2.5c-0.417,5.833 1.25,12.083 2.917,14.583c2.083,2.083 1.25,11.25 -2.083,20.417l-5.417,16.667l2.083,-15.833Z" style="fill:#323331;fill-rule:nonzero;"/><path d="M4269.583,845c1.667,-15 0.833,-24.167 -1.667,-24.167c-4.167,0 -3.333,-15.833 1.667,-29.167c1.667,-5 2.917,-4.583 5.417,2.083c2.917,7.083 3.75,5.833 3.75,-5c0.417,-7.5 -1.25,-13.75 -3.333,-13.75c-2.5,0 -2.5,-5 -0.417,-12.5c2.083,-7.083 3.75,-13.75 3.75,-15c-0.417,-1.25 0.417,-2.917 1.25,-3.75c0.833,-0.833 1.667,15.417 2.5,35.417c0.417,21.667 -0.833,37.917 -3.333,39.583c-2.083,1.25 -4.167,8.75 -4.583,15.833c-0.417,7.5 -2.083,17.917 -3.75,23.75c-2.083,6.667 -2.5,1.667 -1.25,-13.333Z" style="fill:#323331;fill-rule:nonzero;"/><path d="M1696.25,845.833c-0.417,-8.333 13.333,-41.667 17.5,-41.667c3.75,0 3.75,15 0,28.333c-1.667,7.083 -3.333,8.333 -5.833,4.583c-2.5,-4.167 -4.583,-2.917 -7.5,4.583c-2.083,5.833 -4.167,7.5 -4.167,4.167Z" style="fill:#323331;fill-rule:nonzero;"/><path d="M4109.583,833.333c0,-10.417 0.833,-14.583 1.667,-9.167c0.833,5 0.833,13.333 0,18.75c-0.833,5 -1.667,0.833 -1.667,-9.583Z" style="fill:#323331;fill-rule:nonzero;"/><path d="M4117.917,833.333c0,-10.417 0.833,-14.583 1.667,-9.167c0.833,5 0.833,13.333 0,18.75c-0.833,5 -1.667,0.833 -1.667,-9.583Z" style="fill:#323331;fill-rule:nonzero;"/><path d="M1408.333,837.083c0,-11.25 7.5,-28.75 12.5,-28.75c2.083,0 4.167,7.917 4.167,17.917c0,15 -1.25,17.917 -8.333,17.917c-5,0 -8.333,-2.917 -8.333,-7.083Z" style="fill:#323331;fill-rule:nonzero;"/><path d="M4806.25,841.667c-1.667,-2.917 -0.833,-6.667 2.5,-8.75c7.5,-4.583 9.583,-1.667 4.583,7.083c-2.917,5 -4.583,5.417 -7.083,1.667Z" style="fill:#323331;fill-rule:nonzero;"/><path d="M2679.167,825c0,-6.667 -1.667,-12.5 -3.75,-12.5c-2.5,0 -2.5,-5 -0.833,-11.25c1.667,-6.667 2.5,-13.75 1.667,-16.667c-0.833,-2.5 0,-5.417 1.667,-6.667c2.083,-1.25 3.75,11.667 4.167,28.75c0,17.083 -0.417,30.833 -1.25,30.833c-0.833,0 -1.667,-5.417 -1.667,-12.5Z" style="fill:#323331;fill-rule:nonzero;"/><path d="M3710.833,819.583c1.25,-8.75 0.417,-18.333 -1.667,-20.833c-1.667,-2.917 -2.083,-10.417 -0.417,-17.5l2.917,-12.5l0.417,12.917c0,6.667 2.083,14.167 3.75,16.667c2.083,2.083 1.25,11.25 -2.083,20.417l-5.417,16.667l2.5,-15.833Z" style="fill:#323331;fill-rule:nonzero;"/><path d="M1941.667,814.583c0,-3.75 5,-8.333 10.833,-10.417c24.167,-9.583 31.25,-0.833 8.333,10c-17.5,8.333 -19.167,8.333 -19.167,0.417Z" style="fill:#323331;fill-rule:nonzero;"/><path d="M3180.417,816.25c-8.75,-3.333 -13.333,-12.083 -6.25,-12.083c7.5,0 34.167,9.167 34.167,11.667c0,4.167 -17.083,4.583 -27.917,0.417Z" style="fill:#323331;fill-rule:nonzero;"/><path d="M4772.083,815.417c-5.417,-2.083 -9.583,-5.417 -9.583,-7.083c0,-5 13.75,-9.167 16.25,-5c1.25,2.083 6.667,5 12.083,6.667c5,1.667 9.167,4.167 9.167,5.833c0,4.583 -17.917,4.167 -27.917,-0.417Z" style="fill:#323331;fill-rule:nonzero;"/><path d="M5011.25,817.917c-5,-5 -2.917,-9.167 3.333,-7.083c3.333,1.667 6.25,4.167 6.25,6.25c0,4.583 -5.833,5 -9.583,0.833Z" style="fill:#323331;fill-rule:nonzero;"/><path d="M2439.583,809.167c-2.5,-7.083 -2.917,-6.667 9.167,-12.917c11.667,-5.833 12.5,-5.833 15,1.667c1.667,3.75 -1.667,7.917 -9.583,11.667c-10.417,5.417 -12.083,5.417 -14.583,-0.417Z" style="fill:#323331;fill-rule:nonzero;"/><path d="M2983.333,812.083c0,-2.917 7.917,-5.833 32.5,-12.083c17.083,-4.167 19.167,5.833 2.083,10.833c-14.583,4.167 -34.583,5 -34.583,1.25Z" style="fill:#323331;fill-rule:nonzero;"/><path d="M4168.75,802.917c1.25,-8.333 1.25,-17.917 -0.833,-20.833c-3.333,-5.833 -2.083,-28.333 2.5,-32.917c1.667,-2.083 2.083,3.333 1.25,11.25c-0.833,7.917 0,17.083 2.083,20c2.5,3.333 2.083,10.833 -1.667,21.667l-5.417,16.667l2.083,-15.833Z" style="fill:#323331;fill-rule:nonzero;"/><path d="M4575,812.083c0,-2.917 7.917,-5.833 32.5,-12.083c17.083,-4.167 19.167,5.833 2.083,10.833c-14.583,4.167 -34.583,5 -34.583,1.25Z" style="fill:#323331;fill-rule:nonzero;"/><path d="M2063.75,805.417c-23.333,-6.667 -27.5,-11.25 -13.75,-15c4.583,-1.25 8.333,-0.417 8.333,2.083c0,2.083 2.083,2.5 4.167,1.25c2.5,-1.25 4.167,0.417 4.167,4.167c0,5 1.667,5.833 7.083,2.5c8.333,-4.583 23.75,1.667 20,8.333c-2.917,4.583 -2.917,4.583 -30,-3.333Z" style="fill:#323331;fill-rule:nonzero;"/><path d="M2686.25,786.667c1.667,-15.417 0.833,-24.167 -2.083,-24.167c-2.083,0 -3.333,-3.75 -2.083,-8.333c1.25,-4.583 5,-8.333 8.333,-8.333c4.583,0 5,4.583 2.917,22.083c-4.167,32.083 -10,46.667 -7.083,18.75Z" style="fill:#323331;fill-rule:nonzero;"/><path d="M4984.167,806.25c4.167,-4.583 20,-5.833 20,-1.667c0,2.083 -5,3.75 -11.25,3.75c-5.833,0 -10,-0.833 -8.75,-2.083Z" style="fill:#323331;fill-rule:nonzero;"/><path d="M5066.667,802.5c0,-3.333 2.917,-6.667 6.25,-8.333c7.083,-2.5 7.5,-1.667 3.75,7.5c-3.333,8.333 -10,8.75 -10,0.833Z" style="fill:#323331;fill-rule:nonzero;"/><path d="M1983.333,798.75c0,-10.833 32.917,-15.417 40.833,-5.833c3.75,4.583 0.833,5.833 -14.583,6.667c-10.833,0.417 -20.833,1.667 -22.917,2.917c-1.667,1.25 -3.333,-0.417 -3.333,-3.75Z" style="fill:#323331;fill-rule:nonzero;"/><path d="M2492.917,801.25c-14.583,-0.833 -26.25,-2.917 -26.25,-4.583c0,-5.833 49.583,-3.333 52.083,2.5c0.833,2.5 1.25,4.583 0.833,4.167c-0.417,-0.417 -12.5,-1.25 -26.667,-2.083Z" style="fill:#323331;fill-rule:nonzero;"/><path d="M3130.417,800.833c-5.417,-0.833 -9.583,-2.917 -9.583,-5c0,-4.583 17.917,-7.5 27.5,-3.75c6.25,2.5 6.667,3.333 0.833,3.333c-3.75,0.417 -7.5,1.667 -8.333,3.75c-0.417,1.667 -5.417,2.5 -10.417,1.667Z" style="fill:#323331;fill-rule:nonzero;"/><path d="M4686.667,800.833c-42.083,-0.833 -55.833,-5 -36.667,-11.25c10.417,-3.333 42.083,-3.75 70.417,-0.417c21.667,2.5 34.583,6.667 20.417,6.667c-3.75,0 -7.5,1.25 -8.333,3.333c-0.417,1.667 -21.25,2.5 -45.833,1.667Zm8.333,-7.917c-6.667,-0.833 -16.667,-0.833 -22.917,0c-6.667,0.833 -1.25,1.667 11.25,1.667c12.5,0 17.917,-0.833 11.667,-1.667Z" style="fill:#323331;fill-rule:nonzero;"/><path d="M5116.667,799.583c-12.083,-2.083 -12.917,-2.917 -4.167,-3.75c7.5,-0.833 8.333,-1.667 3.333,-2.917c-4.167,-0.833 -7.5,-3.75 -7.5,-6.25c0,-2.5 3.333,-2.917 7.5,-1.25c3.75,1.667 14.167,3.75 22.917,5c8.333,1.25 15.417,3.75 15.417,5.833c0,2.083 -2.917,2.5 -6.25,1.25c-3.333,-1.667 -8.75,-0.833 -11.667,1.25c-2.5,2.083 -11.667,2.5 -19.583,0.833Z" style="fill:#323331;fill-rule:nonzero;"/><path d="M3050,796.25c0,-5.417 11.25,-8.75 26.25,-8.333c11.667,0.833 12.083,0.833 2.917,2.917l-10.417,2.083l10.417,3.333c8.333,2.083 6.25,2.917 -9.167,3.333c-11.25,0.417 -20,-1.25 -20,-3.333Z" style="fill:#323331;fill-rule:nonzero;"/><path d="M1500.833,783.333c0,-7.917 0.833,-11.25 2.083,-7.083c0.833,3.75 0.833,10.417 0,14.583c-1.25,3.75 -2.083,0.417 -2.083,-7.5Z" style="fill:#323331;fill-rule:nonzero;"/><path d="M2483.333,787.5c0,-2.083 3.75,-4.167 8.333,-4.167c4.583,0 8.333,2.083 8.333,4.167c0,2.5 -3.75,4.167 -8.333,4.167c-4.583,0 -8.333,-1.667 -8.333,-4.167Z" style="fill:#323331;fill-rule:nonzero;"/><path d="M4175,764.167c0,-4.167 2.083,-10.833 4.167,-14.167c3.333,-4.583 3.75,-2.917 1.667,6.25c-3.333,15.417 -5.833,18.75 -5.833,7.917Z" style="fill:#323331;fill-rule:nonzero;"/><path d="M4284.167,766.667c0,-3.333 1.667,-10.833 3.333,-16.667c2.5,-8.333 3.333,-8.75 3.333,-2.083c0,4.583 -1.25,12.083 -3.333,16.667c-2.083,5 -3.333,5.833 -3.333,2.083Z" style="fill:#323331;fill-rule:nonzero;"/><path d="M4362.5,763.75c0,-6.667 4.167,-7.5 41.667,-6.25c61.667,2.083 50.833,13.333 -12.917,13.333c-24.583,0 -28.75,-1.25 -28.75,-7.083Z" style="fill:#323331;fill-rule:nonzero;"/><path d="M4361.25,687.5c1.25,-10.417 4.167,-21.25 6.25,-23.75c5,-6.25 97.083,-7.917 100.833,-2.083c3.333,5.417 -2.917,11.667 -12.083,12.083c-4.583,0 -25.417,0.417 -45.833,1.25l-37.5,1.25l1.25,15.833c1.25,10.417 0,16.25 -3.333,16.25c-2.917,0 -3.75,-3.333 -2.083,-8.333c1.25,-4.583 0.833,-8.333 -1.667,-8.333c-2.083,0 -5,3.333 -5.833,7.5c-0.833,3.75 -0.833,-1.25 0,-11.667Z" style="fill:#323331;fill-rule:nonzero;"/><path d="M1841.667,696.667c0,-2.917 -5.417,-5 -12.5,-5c-6.667,0 -12.5,-2.083 -12.5,-4.167c0,-5 20.417,-2.083 26.25,3.75c2.5,2.5 3.333,5.833 1.667,7.5c-1.667,1.25 -2.917,0.417 -2.917,-2.083Z" style="fill:#323331;fill-rule:nonzero;"/><path d="M3806.25,698.333l179.167,-5l-89.583,-1.25l-89.583,-1.667l72.917,-3.75c60.833,-2.917 94.167,-2.083 122.917,3.333c2.5,0.417 7.917,1.25 12.5,1.667l8.333,0.417l-8.333,3.75c-4.583,2.083 -53.333,3.333 -108.333,2.917l-100,-0.417Z" style="fill:#323331;fill-rule:nonzero;"/><path d="M2681.25,675.417l-12.5,-2.917l10.833,-2.083c5.833,-1.25 12.5,0 15.417,3.333c5.833,5.833 5,5.833 -13.75,1.667Z" style="fill:#323331;fill-rule:nonzero;"/><path d="M4191.667,671.25c0,-10 18.333,-13.75 61.667,-12.5c35.833,0.833 38.75,1.667 35.833,9.583c-1.25,3.75 -13.75,5.417 -43.75,5.833c-23.333,0 -43.333,1.25 -44.583,2.5c-4.583,5 -9.167,2.083 -9.167,-5.417Z" style="fill:#323331;fill-rule:nonzero;"/></g></svg>